<svg width="54" height="54" viewBox="0 0 54 54" fill="none" xmlns="http://www.w3.org/2000/svg">
<g filter="url(#filter0_d_60_3505)">
<rect width="42" height="42" rx="21" transform="matrix(0 -1 -1 0 48 47)" fill="white" shape-rendering="crispEdges"/>
<path fill-rule="evenodd" clip-rule="evenodd" d="M23.0955 34.9646C22.6322 34.5012 22.6322 33.7499 23.0957 33.2865L30.3832 26.0005L23.0957 18.7144C22.6322 18.2511 22.6322 17.4998 23.0955 17.0363C23.5588 16.5729 24.3102 16.5728 24.7736 17.0362L32.9004 25.1614C33.123 25.3839 33.248 25.6857 33.248 26.0005C33.248 26.3152 33.123 26.6171 32.9004 26.8396L24.7736 34.9648C24.3102 35.4281 23.5588 35.4281 23.0955 34.9646Z" fill="#93B7E4"/>
</g>
<defs>
<filter id="filter0_d_60_3505" x="0" y="0" width="54" height="54" filterUnits="userSpaceOnUse" color-interpolation-filters="sRGB">
<feFlood flood-opacity="0" result="BackgroundImageFix"/>
<feColorMatrix in="SourceAlpha" type="matrix" values="0 0 0 0 0 0 0 0 0 0 0 0 0 0 0 0 0 0 127 0" result="hardAlpha"/>
<feOffset dy="1"/>
<feGaussianBlur stdDeviation="3"/>
<feComposite in2="hardAlpha" operator="out"/>
<feColorMatrix type="matrix" values="0 0 0 0 0.189375 0 0 0 0 0.192937 0 0 0 0 0.225 0 0 0 0.15 0"/>
<feBlend mode="normal" in2="BackgroundImageFix" result="effect1_dropShadow_60_3505"/>
<feBlend mode="normal" in="SourceGraphic" in2="effect1_dropShadow_60_3505" result="shape"/>
</filter>
</defs>
</svg>
