<svg width="10" height="10" viewBox="0 0 10 10" fill="currentColor" xmlns="http://www.w3.org/2000/svg">
    <path fill-rule="evenodd" clip-rule="evenodd"
        d="M0.331993 9.66731C0.136731 9.47204 0.136731 9.15546 0.331993 8.9602L8.96052 0.331631C9.15578 0.136369 9.47236 0.136369 9.66763 0.331631C9.86289 0.526894 9.86289 0.843477 9.66763 1.03874L1.0391 9.66731C0.843837 9.86257 0.527255 9.86257 0.331993 9.66731Z" />
    <path fill-rule="evenodd" clip-rule="evenodd"
        d="M9.66782 9.6673C9.86308 9.47204 9.86308 9.15546 9.66782 8.96019L1.03929 0.331628C0.844027 0.136365 0.527445 0.136365 0.332184 0.331628C0.136922 0.52689 0.136922 0.843473 0.332184 1.03874L8.96071 9.6673C9.15597 9.86256 9.47255 9.86256 9.66782 9.6673Z" />
</svg>