<svg viewBox="0 0 29 28" fill="none" xmlns="http://www.w3.org/2000/svg">
  <path fill-rule="evenodd" clip-rule="evenodd"
    d="M28.0924 2.37569C28.6359 1.83221 28.6359 0.951074 28.0924 0.407603C27.5489 -0.135868 26.6678 -0.135868 26.1243 0.407603L14.5 12.0319L2.87569 0.407603C2.33221 -0.135868 1.45107 -0.135868 0.907603 0.407603C0.364132 0.951074 0.364132 1.83221 0.907603 2.37569L12.5319 14L0.907603 25.6243C0.364132 26.1678 0.364132 27.0489 0.907603 27.5924C1.45107 28.1359 2.33221 28.1359 2.87569 27.5924L14.5 15.9681L26.1243 27.5924C26.6678 28.1359 27.5489 28.1359 28.0924 27.5924C28.6359 27.0489 28.6359 26.1678 28.0924 25.6243L16.4681 14L28.0924 2.37569Z"
    fill="#B91A1A" />
</svg>