<svg width="34" height="34" viewBox="0 0 34 34" fill="none" xmlns="http://www.w3.org/2000/svg">
<path fill-rule="evenodd" clip-rule="evenodd" d="M11.5296 13.8217H14.5296V10.8217V3.37891H19.4718V10.8217V13.8217H22.4718H23.7787L17.0007 22.3512L10.2227 13.8217H11.5296ZM11.5296 1.62891V7.82168V10.8217H8.52959H6.59676C5.55053 10.8217 4.96723 12.0303 5.61813 12.8494L16.022 25.9418C16.5225 26.5716 17.4789 26.5716 17.9793 25.9418L28.3832 12.8494C29.0341 12.0303 28.4508 10.8217 27.4046 10.8217H25.4718H22.4718V7.82168V1.62891C22.4718 0.93855 21.9121 0.378906 21.2218 0.378906H12.7796C12.0892 0.378906 11.5296 0.93855 11.5296 1.62891ZM3.27051 22.2246C3.27051 21.3962 2.59893 20.7246 1.77051 20.7246C0.942081 20.7246 0.270508 21.3962 0.270508 22.2246V29.6172C0.270508 31.8263 2.06137 33.6172 4.27051 33.6172H29.7207C31.9299 33.6172 33.7207 31.8263 33.7207 29.6172V22.2246C33.7207 21.3962 33.0491 20.7246 32.2207 20.7246C31.3923 20.7246 30.7207 21.3962 30.7207 22.2246V29.6172C30.7207 30.1695 30.273 30.6172 29.7207 30.6172H4.27051C3.71822 30.6172 3.27051 30.1695 3.27051 29.6172V22.2246Z" fill="#96A1BD"/>
</svg>
