<svg viewBox="0 0 42 42" fill="none" xmlns="http://www.w3.org/2000/svg">
  <path
    d="M41.3097 21C41.3097 32.2213 32.2213 41.3097 21 41.3097C9.77871 41.3097 0.69025 32.2213 0.69025 21C0.69025 9.77871 9.77871 0.69025 21 0.69025C32.2213 0.69025 41.3097 9.77871 41.3097 21Z"
    stroke="white" stroke-width="1.3805" />
  <path
    d="M23.6624 17.0902L23.6638 17.0892C23.8454 16.9635 24.1281 16.8027 24.5043 16.5889C24.5487 16.5636 24.5944 16.5376 24.6414 16.5109C25.0692 16.2673 25.5734 15.9763 26.0681 15.6472C26.4183 15.4142 26.7732 15.156 27.1002 14.8737V16.4079C27.1002 17.9628 26.3257 18.8153 25.5288 19.3476C25.157 19.5886 24.4964 19.9952 23.7608 20.4243L23.7599 20.4249C23.1566 20.778 22.5215 21.1501 21.9857 21.5805V20.2863V19.9568C22.0295 19.2756 22.209 18.7471 22.461 18.321C22.7553 17.8235 23.1703 17.4291 23.6624 17.0902ZM24.1086 21.0206C23.2998 21.494 22.5328 21.9465 21.9857 22.5084L24.1086 21.0206Z"
    stroke="white" stroke-width="1.3805" />
  <path
    d="M21.9857 26.4106C22.0295 25.7294 22.209 25.2009 22.461 24.7748C22.7553 24.2773 23.1703 23.8829 23.6624 23.544L23.6638 23.543C23.8454 23.4173 24.1281 23.2565 24.5043 23.0427C24.5487 23.0174 24.5944 22.9914 24.6414 22.9647C25.0692 22.7211 25.5734 22.4301 26.0681 22.101C26.4183 21.868 26.7732 21.6098 27.1002 21.3275V22.8617C27.1002 24.4166 26.3257 25.2691 25.5288 25.8014C25.1604 26.0401 24.5026 26.4351 23.7608 26.8678L23.7599 26.8683C23.1566 27.2214 22.5215 27.5936 21.9857 28.024V26.7401V26.4106Z"
    stroke="white" stroke-width="1.3805" />
  <path
    d="M23.6624 29.9877L23.6638 29.9867C23.8454 29.861 24.1281 29.7003 24.5043 29.4864C24.5487 29.4611 24.5944 29.4352 24.6414 29.4084C25.0692 29.1649 25.5734 28.8739 26.0681 28.5447C26.4183 28.3117 26.7732 28.0535 27.1002 27.7713V29.3055C27.1002 30.8603 26.3257 31.7128 25.5288 32.2451C25.1604 32.4839 24.5026 32.8788 23.7608 33.3115L23.7599 33.312C23.1566 33.6652 22.5215 34.0373 21.9857 34.4677V33.1838V32.8543C22.0295 32.1732 22.209 31.6447 22.461 31.2185C22.7553 30.721 23.1703 30.3266 23.6624 29.9877Z"
    stroke="white" stroke-width="1.3805" />
  <path
    d="M18.0466 17.0892L18.048 17.0902C18.5401 17.4291 18.9551 17.8235 19.2493 18.321C19.5014 18.7471 19.6808 19.2757 19.7246 19.9568V20.2863V21.5702C19.1888 21.1398 18.5537 20.7676 17.9505 20.4145L17.9496 20.414C17.2078 19.9813 16.5499 19.5863 16.1815 19.3476C15.3846 18.8153 14.6102 17.9628 14.6102 16.4079V14.8737C14.9372 15.156 15.2921 15.4142 15.6422 15.6472C16.137 15.9763 16.6412 16.2673 17.0689 16.5109C17.1159 16.5376 17.1616 16.5636 17.206 16.5889C17.5822 16.8027 17.865 16.9635 18.0466 17.0892Z"
    stroke="white" stroke-width="1.3805" />
  <path
    d="M19.7349 34.4733C19.1972 34.0417 18.56 33.6714 17.9471 33.3204C17.2125 32.8918 16.553 32.4859 16.1816 32.2451C15.3846 31.7129 14.6102 30.8604 14.6102 29.3055V27.7716C14.937 28.054 15.2918 28.3124 15.6417 28.5456C16.1361 28.8753 16.6402 29.1672 17.0674 29.4119C17.1032 29.4324 17.1382 29.4524 17.1725 29.4721C17.5642 29.6962 17.857 29.8638 18.0424 29.9942L18.0424 29.9942L18.048 29.998C18.5401 30.3369 18.9551 30.7314 19.2493 31.2289C19.5406 31.7214 19.7349 32.3506 19.7349 33.1941V34.4733Z"
    stroke="white" stroke-width="1.3805" />
  <path
    d="M17.9505 26.8686L17.9496 26.8681C17.2139 26.4389 16.5534 26.0324 16.1816 25.7913C15.3846 25.2591 14.6102 24.4066 14.6102 22.8517V21.3242C14.9372 21.6072 15.292 21.8657 15.6422 22.0987C16.1374 22.4281 16.6419 22.7186 17.0703 22.9612C17.1303 22.9952 17.1883 23.0279 17.2441 23.0595C17.6006 23.2609 17.8706 23.4135 18.0477 23.5337C18.5414 23.8789 18.9551 24.273 19.2472 24.7697C19.5367 25.262 19.7292 25.8928 19.7246 26.747H19.7246V26.7507V28.0243C19.1888 27.5938 18.5537 27.2217 17.9505 26.8686Z"
    stroke="white" stroke-width="1.3805" />
  <path
    d="M20.8493 7.94237C21.1933 8.65788 21.578 9.26109 21.9226 9.80138C21.9643 9.86685 22.0055 9.9314 22.0459 9.99511C22.6795 10.9934 23.0968 11.7375 23.0968 12.706C23.0968 13.2759 22.9854 13.6417 22.8422 13.9001C22.6972 14.1618 22.4912 14.3652 22.2165 14.5728C22.0796 14.6761 21.9354 14.7737 21.7726 14.8838L21.7607 14.8918C21.5985 15.0016 21.4179 15.1239 21.2417 15.2593C21.1095 15.3609 20.9758 15.4726 20.846 15.5988C20.716 15.4739 20.5823 15.3631 20.4504 15.2624C20.2739 15.1277 20.093 15.0055 19.9307 14.896L19.9276 14.8939C19.7611 14.7816 19.6137 14.6821 19.4744 14.5768C19.1994 14.3688 18.9929 14.1645 18.8476 13.9019C18.704 13.6425 18.5926 13.2759 18.5926 12.706C18.5926 11.7385 19.0116 10.9949 19.648 9.99619C19.6882 9.93309 19.7291 9.86917 19.7706 9.80435C20.117 9.26336 20.5038 8.65923 20.8493 7.94237Z"
    stroke="white" stroke-width="1.3805" />
</svg>