<svg viewBox="0 0 31 34" fill="none" xmlns="http://www.w3.org/2000/svg">
  <path fill-rule="evenodd" clip-rule="evenodd"
    d="M14.2851 0.0371488C13.2456 0.165899 12.439 0.475741 10.3564 1.5462C8.28352 2.61172 6.81543 3.48902 4.22794 5.20856C2.67885 6.23806 2.23878 6.59907 1.66853 7.30784C1.14536 7.95821 0.938907 8.32058 1.05114 8.39167C1.09884 8.42186 1.61879 8.44698 2.20648 8.44754L3.27515 8.44847L3.76893 7.98667C4.49967 7.30333 7.46871 5.36459 9.56038 4.20491C10.5991 3.62903 11.9401 2.95726 12.683 2.64061C14.1164 2.02965 15.91 1.9684 17.4408 2.4782C18.0063 2.66653 20.2483 3.77183 21.4 4.43006C23.6341 5.70685 25.9663 7.22475 26.6107 7.82148C27.6068 8.74365 28.5443 10.4359 28.7576 11.6966C28.8617 12.3121 29.0023 14.0776 29.0793 15.7336C29.1575 17.416 29.0953 19.5192 28.914 21.3282C28.7156 23.3069 28.0486 24.7564 26.7452 26.0409C26.2673 26.5118 24.2227 27.9129 22.4209 29.0041C22.1146 29.1896 21.7249 29.4189 21.5547 29.5137C21.3846 29.6084 20.967 29.8406 20.6267 30.0296C19.7089 30.5393 17.8384 31.4348 17.3785 31.5847C16.6322 31.8279 15.9378 31.9137 14.9966 31.8788C13.6545 31.8291 13.2269 31.6964 11.2844 30.7265C10.3997 30.2847 9.18861 29.6405 8.59312 29.2949C7.03667 28.3916 4.34672 26.5866 3.84626 26.1098L3.42704 25.7104L2.26699 25.7102C1.47315 25.7101 1.10694 25.7312 1.10694 25.7773C1.10694 25.8886 1.69637 26.7029 2.09827 27.1468C2.54509 27.6403 3.05737 28.0304 4.75723 29.1719C6.92512 30.6277 9.26706 31.9817 11.3665 32.9931C13.0809 33.8191 13.7852 34.0009 15.2676 34C16.792 33.9992 17.4485 33.8195 19.3584 32.8806C21.4528 31.8509 22.8074 31.0817 24.8338 29.7716C27.2734 28.1942 28.0999 27.5695 28.7092 26.842C29.7023 25.6563 30.314 24.4077 30.5822 23.0187C30.8341 21.7144 31.0101 17.9153 30.9233 15.6562C30.8343 13.3376 30.6367 11.0954 30.4622 10.4218C30.0574 8.85959 28.8688 7.02529 27.6831 6.13288C25.7593 4.68502 22.5556 2.74436 19.7537 1.32954C18.139 0.514223 17.5623 0.284626 16.7283 0.124879C16.1053 0.00559539 14.8915 -0.0379606 14.2851 0.0371488Z"
    fill="url(#paint0_linear_460_2165)" />
  <path fill-rule="evenodd" clip-rule="evenodd"
    d="M5.874 17.3536C5.46807 17.4889 5.07409 17.8517 4.90024 18.2502C4.78863 18.506 4.75138 18.7261 4.72966 19.2591C4.67027 20.7171 5.10979 21.4398 6.17864 21.6415C6.79207 21.7572 8.24291 21.6199 8.24291 21.4461C8.24291 21.4132 8.16631 21.2068 8.07277 20.9874C7.96245 20.7288 7.87423 20.5991 7.82195 20.6186C7.59377 20.7037 6.87646 20.7761 6.61624 20.7403C5.9991 20.6554 5.80056 20.2826 5.84071 19.2834C5.87864 18.3382 6.10829 18.1339 7.06739 18.1922C7.35663 18.2098 7.64197 18.244 7.70149 18.2682C7.7894 18.3039 7.84305 18.2385 7.98819 17.9188C8.1243 17.6192 8.14979 17.5075 8.09547 17.4494C7.90096 17.2414 6.40409 17.1769 5.874 17.3536ZM0.0761719 17.3972C0.0761719 17.4457 0.343323 18.2044 0.669868 19.0832C0.996414 19.962 1.34214 20.8924 1.43816 21.1508L1.61269 21.6207L1.24655 22.3513C1.04523 22.7531 0.880472 23.1055 0.880472 23.1343C0.880472 23.1631 1.13067 23.1866 1.43643 23.1866H1.99232L2.17156 22.8309C2.71322 21.7559 3.69787 19.2504 4.11802 17.8779C4.23898 17.4829 4.25704 17.357 4.19623 17.3336C4.15267 17.3169 3.91429 17.3115 3.66644 17.3216L3.21591 17.34L2.80083 18.6083C2.57259 19.3059 2.34405 19.9562 2.29301 20.0535C2.19265 20.2447 2.20583 20.2741 1.32686 17.8968C1.23876 17.6586 1.14069 17.429 1.10883 17.3864C1.02135 17.2695 0.0761719 17.2794 0.0761719 17.3972ZM9.57687 17.7256C9.49 18.7025 9.28237 19.9943 9.08909 20.7604L8.88177 21.5824L9.43847 21.5647L9.99523 21.5471L10.1101 21.145C10.2858 20.5303 10.5215 19.3136 10.5688 18.7785L10.611 18.299H11.1593H11.7076V19.9385V21.578H12.2652H12.8228L12.8066 19.459L12.7903 17.34L11.2022 17.3235L9.61411 17.307L9.57687 17.7256ZM13.565 17.3864C13.5656 17.429 13.9137 18.3964 14.3385 19.5364L15.1108 21.609L14.7394 22.3714C14.5351 22.7907 14.368 23.1457 14.368 23.1602C14.368 23.1748 14.6206 23.1866 14.9292 23.1866H15.4906L15.8813 22.3669C16.0961 21.916 16.4296 21.1486 16.6222 20.6616C17.0782 19.5086 17.7786 17.4337 17.7354 17.3637C17.6805 17.2749 16.7193 17.2958 16.6907 17.3864C16.6773 17.429 16.594 17.7004 16.5055 17.9896C16.2069 18.9665 15.7666 20.1573 15.711 20.1387C15.6582 20.1211 15.3676 19.3798 14.8806 18.0206C14.7587 17.6803 14.6282 17.3814 14.5907 17.3564C14.4674 17.2742 13.5635 17.3006 13.565 17.3864ZM18.5545 17.3503C18.5318 17.373 18.5132 18.3335 18.5132 19.4848V21.578H19.07H19.6268V19.9385V18.299H20.4225H21.2182L21.4066 17.8505C21.5102 17.6039 21.582 17.3811 21.5663 17.3556C21.5307 17.2982 18.6117 17.293 18.5545 17.3503ZM22.1748 18.9615C22.1944 20.5574 22.2005 20.63 22.341 20.9133C22.6456 21.5279 23.1591 21.7431 24.1729 21.6807C24.7641 21.6443 25.3356 21.5389 25.7065 21.3979L25.8774 21.333L25.861 19.3365L25.8447 17.34L25.3343 17.3221L24.8239 17.3041V18.9693V20.6345L24.6305 20.6732C24.2641 20.7465 23.6816 20.7159 23.5388 20.6159C23.2709 20.4282 23.25 20.3098 23.2164 18.7939L23.1843 17.34L22.6694 17.3219L22.1544 17.3039L22.1748 18.9615Z"
    fill="#EE2E53" />
  <path fill-rule="evenodd" clip-rule="evenodd"
    d="M4.69488 10.906C3.80984 11.1437 3.50742 11.6817 3.49876 13.0337C3.4922 14.0537 3.60041 14.4376 4.00485 14.8291C4.18266 15.0013 4.40038 15.1409 4.57157 15.1926C5.2483 15.397 6.2254 15.327 6.71943 15.0389C7.21122 14.7521 7.47516 14.0606 7.47769 13.0522C7.48011 12.1135 7.24166 11.4539 6.78575 11.1379C6.34017 10.8291 5.37829 10.7224 4.69488 10.906ZM9.71476 10.8731C9.25186 10.964 8.83275 11.2431 8.61182 11.6075C8.37208 12.0031 8.28329 12.3884 8.28329 13.0337C8.28329 14.1852 8.57303 14.7622 9.33507 15.1284C9.65153 15.2805 9.72949 15.2913 10.4487 15.2826C10.8798 15.2774 11.359 15.2358 11.5314 15.1887C11.8854 15.0919 11.8889 15.0722 11.6506 14.5332C11.511 14.2177 11.4894 14.1974 11.3305 14.2346C11.2369 14.2565 10.9214 14.2912 10.6296 14.3116C9.6597 14.3798 9.43171 14.1365 9.43214 13.0337C9.43251 11.9627 9.64225 11.755 10.6653 11.8129C10.9715 11.8303 11.2677 11.8632 11.3234 11.8862C11.4041 11.9195 11.4593 11.8393 11.5962 11.4905C11.6906 11.25 11.7522 11.0376 11.7332 11.0185C11.7141 10.9995 11.48 10.945 11.2129 10.8973C10.6743 10.8014 10.125 10.7925 9.71476 10.8731ZM0.0546875 13.0647V15.1992H0.61151H1.16833V13.5614V11.9237L1.98334 11.9064L2.79834 11.8892L2.97324 11.4621C3.06945 11.2273 3.14815 11.0115 3.14815 10.9826C3.14815 10.9538 2.45212 10.9302 1.60142 10.9302H0.0546875V13.0647ZM6.10952 11.8816C6.179 11.9445 6.26883 12.1433 6.30917 12.3234C6.39839 12.7223 6.35378 13.7965 6.23771 14.0438C6.12548 14.2828 5.8798 14.3949 5.46824 14.3949C4.75254 14.3949 4.60492 14.1617 4.60665 13.0337C4.60783 12.2453 4.70441 11.9023 4.9551 11.7961C5.19744 11.6935 5.96437 11.7503 6.10952 11.8816Z"
    fill="#3876C1" />
  <defs>
    <linearGradient id="paint0_linear_460_2165" x1="15.9836" y1="0" x2="15.9836" y2="34"
      gradientUnits="userSpaceOnUse">
      <stop stop-color="#0F67B1" />
      <stop offset="0.348322" stop-color="#0F67B1" />
      <stop offset="0.584219" stop-color="#8B487C" />
      <stop offset="0.739415" stop-color="#E53354" />
      <stop offset="1" stop-color="#EE2E53" />
    </linearGradient>
  </defs>
</svg>