<svg width="31" height="34" viewBox="0 0 31 34" fill="none" xmlns="http://www.w3.org/2000/svg">
    <path fill-rule="evenodd" clip-rule="evenodd"
        d="M14.2304 0.0371488C13.1909 0.165899 12.3843 0.475741 10.3017 1.5462C8.22884 2.61172 6.76074 3.48902 4.17325 5.20856C2.62417 6.23806 2.18409 6.59907 1.61384 7.30784C1.09068 7.95821 0.88422 8.32058 0.996451 8.39167C1.04415 8.42186 1.5641 8.44698 2.1518 8.44754L3.22046 8.44847L3.71424 7.98667C4.44498 7.30333 7.41402 5.36459 9.50569 4.20491C10.5444 3.62903 11.8854 2.95726 12.6284 2.64061C14.0617 2.02965 15.8553 1.9684 17.3861 2.4782C17.9516 2.66653 20.1936 3.77183 21.3454 4.43006C23.5794 5.70685 25.9116 7.22475 26.556 7.82148C27.5521 8.74365 28.4896 10.4359 28.7029 11.6966C28.807 12.3121 28.9477 14.0776 29.0246 15.7336C29.1028 17.416 29.0406 19.5192 28.8593 21.3282C28.661 23.3069 27.9939 24.7564 26.6905 26.0409C26.2126 26.5118 24.168 27.9129 22.3662 29.0041C22.0599 29.1896 21.6702 29.4189 21.5 29.5137C21.3299 29.6084 20.9123 29.8406 20.572 30.0296C19.6542 30.5393 17.7837 31.4348 17.3239 31.5847C16.5775 31.8279 15.8831 31.9137 14.9419 31.8788C13.5998 31.8291 13.1722 31.6964 11.2297 30.7265C10.345 30.2847 9.13392 29.6405 8.53843 29.2949C6.98199 28.3916 4.29204 26.5866 3.79158 26.1098L3.37235 25.7104L2.2123 25.7102C1.41846 25.7101 1.05226 25.7312 1.05226 25.7773C1.05226 25.8886 1.64168 26.7029 2.04359 27.1468C2.49041 27.6403 3.00268 28.0304 4.70254 29.1719C6.87044 30.6277 9.21237 31.9817 11.3118 32.9931C13.0262 33.8191 13.7305 34.0009 15.2129 34C16.7373 33.9992 17.3938 33.8195 19.3037 32.8806C21.3981 31.8509 22.7527 31.0817 24.7791 29.7716C27.2187 28.1942 28.0452 27.5695 28.6545 26.842C29.6476 25.6563 30.2593 24.4077 30.5276 23.0187C30.7794 21.7144 30.9554 17.9153 30.8686 15.6562C30.7796 13.3376 30.5821 11.0954 30.4075 10.4218C30.0027 8.85959 28.8141 7.02529 27.6284 6.13288C25.7047 4.68502 22.5009 2.74436 19.699 1.32954C18.0844 0.514223 17.5076 0.284626 16.6736 0.124879C16.0507 0.00559539 14.8368 -0.0379606 14.2304 0.0371488Z"
        fill="white" />
    <path fill-rule="evenodd" clip-rule="evenodd"
        d="M5.81931 17.3536C5.41338 17.4889 5.0194 17.8517 4.84555 18.2502C4.73394 18.506 4.69669 18.7261 4.67498 19.2591C4.61558 20.7171 5.0551 21.4398 6.12395 21.6415C6.73739 21.7572 8.18822 21.6199 8.18822 21.4461C8.18822 21.4132 8.11163 21.2068 8.01808 20.9874C7.90777 20.7288 7.81954 20.5991 7.76726 20.6186C7.53909 20.7037 6.82178 20.7761 6.56155 20.7403C5.94441 20.6554 5.74587 20.2826 5.78602 19.2834C5.82395 18.3382 6.05361 18.1339 7.0127 18.1922C7.30194 18.2098 7.58728 18.244 7.6468 18.2682C7.73472 18.3039 7.78836 18.2385 7.9335 17.9188C8.06962 17.6192 8.09511 17.5075 8.04079 17.4494C7.84627 17.2414 6.3494 17.1769 5.81931 17.3536ZM0.0214844 17.3972C0.0214844 17.4457 0.288635 18.2044 0.615181 19.0832C0.941727 19.962 1.28745 20.8924 1.38347 21.1508L1.55801 21.6207L1.19186 22.3513C0.990542 22.7531 0.825784 23.1055 0.825784 23.1343C0.825784 23.1631 1.07598 23.1866 1.38174 23.1866H1.93763L2.11687 22.8309C2.65854 21.7559 3.64318 19.2504 4.06334 17.8779C4.18429 17.4829 4.20236 17.357 4.14154 17.3336C4.09798 17.3169 3.8596 17.3115 3.61175 17.3216L3.16122 17.34L2.74614 18.6083C2.51791 19.3059 2.28936 19.9562 2.23832 20.0535C2.13797 20.2447 2.15115 20.2741 1.27217 17.8968C1.18407 17.6586 1.08601 17.429 1.05414 17.3864C0.96666 17.2695 0.0214844 17.2794 0.0214844 17.3972ZM9.52218 17.7256C9.43532 18.7025 9.22768 19.9943 9.0344 20.7604L8.82708 21.5824L9.38378 21.5647L9.94054 21.5471L10.0554 21.145C10.2311 20.5303 10.4669 19.3136 10.5141 18.7785L10.5563 18.299H11.1046H11.6529V19.9385V21.578H12.2105H12.7681L12.7519 19.459L12.7356 17.34L11.1475 17.3235L9.55943 17.307L9.52218 17.7256ZM13.5103 17.3864C13.511 17.429 13.859 18.3964 14.2838 19.5364L15.0561 21.609L14.6847 22.3714C14.4804 22.7907 14.3133 23.1457 14.3133 23.1602C14.3133 23.1748 14.5659 23.1866 14.8745 23.1866H15.4359L15.8266 22.3669C16.0415 21.916 16.3749 21.1486 16.5675 20.6616C17.0235 19.5086 17.7239 17.4337 17.6807 17.3637C17.6258 17.2749 16.6646 17.2958 16.636 17.3864C16.6226 17.429 16.5393 17.7004 16.4509 17.9896C16.1522 18.9665 15.7119 20.1573 15.6563 20.1387C15.6036 20.1211 15.313 19.3798 14.8259 18.0206C14.704 17.6803 14.5736 17.3814 14.5361 17.3564C14.4128 17.2742 13.5088 17.3006 13.5103 17.3864ZM18.4998 17.3503C18.4771 17.373 18.4585 18.3335 18.4585 19.4848V21.578H19.0153H19.5722V19.9385V18.299H20.3678H21.1635L21.3519 17.8505C21.4555 17.6039 21.5273 17.3811 21.5116 17.3556C21.4761 17.2982 18.557 17.293 18.4998 17.3503ZM22.1201 18.9615C22.1397 20.5574 22.1458 20.63 22.2863 20.9133C22.5909 21.5279 23.1045 21.7431 24.1182 21.6807C24.7094 21.6443 25.2809 21.5389 25.6518 21.3979L25.8227 21.333L25.8063 19.3365L25.79 17.34L25.2796 17.3221L24.7692 17.3041V18.9693V20.6345L24.5758 20.6732C24.2094 20.7465 23.6269 20.7159 23.4841 20.6159C23.2162 20.4282 23.1953 20.3098 23.1617 18.7939L23.1296 17.34L22.6147 17.3219L22.0998 17.3039L22.1201 18.9615Z"
        fill="white" />
    <path fill-rule="evenodd" clip-rule="evenodd"
        d="M4.64019 10.906C3.75515 11.1437 3.45274 11.6817 3.44407 13.0337C3.43752 14.0537 3.54572 14.4376 3.95016 14.8291C4.12798 15.0013 4.34569 15.1409 4.51689 15.1926C5.19361 15.397 6.17071 15.327 6.66474 15.0389C7.15654 14.7521 7.42047 14.0606 7.42301 13.0522C7.42542 12.1135 7.18698 11.4539 6.73106 11.1379C6.28548 10.8291 5.3236 10.7224 4.64019 10.906ZM9.66007 10.8731C9.19717 10.964 8.77807 11.2431 8.55713 11.6075C8.31739 12.0031 8.22861 12.3884 8.22861 13.0337C8.22861 14.1852 8.51834 14.7622 9.28038 15.1284C9.59684 15.2805 9.6748 15.2913 10.394 15.2826C10.8251 15.2774 11.3043 15.2358 11.4767 15.1887C11.8307 15.0919 11.8342 15.0722 11.5959 14.5332C11.4563 14.2177 11.4347 14.1974 11.2759 14.2346C11.1822 14.2565 10.8667 14.2912 10.5749 14.3116C9.60501 14.3798 9.37702 14.1365 9.37746 13.0337C9.37783 11.9627 9.58756 11.755 10.6106 11.8129C10.9168 11.8303 11.213 11.8632 11.2687 11.8862C11.3494 11.9195 11.4047 11.8393 11.5415 11.4905C11.6359 11.25 11.6975 11.0376 11.6785 11.0185C11.6594 10.9995 11.4253 10.945 11.1582 10.8973C10.6196 10.8014 10.0703 10.7925 9.66007 10.8731ZM0 13.0647V15.1992H0.556823H1.11365V13.5614V11.9237L1.92865 11.9064L2.74365 11.8892L2.91856 11.4621C3.01476 11.2273 3.09346 11.0115 3.09346 10.9826C3.09346 10.9538 2.39743 10.9302 1.54673 10.9302H0V13.0647ZM6.05483 11.8816C6.12431 11.9445 6.21414 12.1433 6.25448 12.3234C6.3437 12.7223 6.29909 13.7965 6.18302 14.0438C6.07079 14.2828 5.82511 14.3949 5.41356 14.3949C4.69785 14.3949 4.55023 14.1617 4.55197 13.0337C4.55314 12.2453 4.64972 11.9023 4.90041 11.7961C5.14275 11.6935 5.90969 11.7503 6.05483 11.8816Z"
        fill="white" />
</svg>