<svg viewBox="0 0 24 24" fill="none" xmlns="http://www.w3.org/2000/svg">
  <path fill-rule="evenodd" clip-rule="evenodd"
    d="M3.72773 11.9986C3.72773 7.43074 7.43074 3.72773 11.9986 3.72773C16.5665 3.72773 20.2695 7.43074 20.2695 11.9986C20.2695 16.5665 16.5665 20.2695 11.9986 20.2695C7.43074 20.2695 3.72773 16.5665 3.72773 11.9986ZM11.9986 1.92773C6.43663 1.92773 1.92773 6.43663 1.92773 11.9986C1.92773 17.5606 6.43663 22.0695 11.9986 22.0695C17.5606 22.0695 22.0695 17.5606 22.0695 11.9986C22.0695 6.43663 17.5606 1.92773 11.9986 1.92773ZM11.9977 6.50391C11.5006 6.50391 11.0977 6.90685 11.0977 7.40391C11.0977 7.90096 11.5006 8.30391 11.9977 8.30391H12.0077C12.5047 8.30391 12.9077 7.90096 12.9077 7.40391C12.9077 6.90685 12.5047 6.50391 12.0077 6.50391H11.9977ZM12.8977 10.6857C12.8977 10.1887 12.4947 9.78573 11.9977 9.78573C11.5006 9.78573 11.0977 10.1887 11.0977 10.6857V16.5946C11.0977 17.0917 11.5006 17.4946 11.9977 17.4946C12.4947 17.4946 12.8977 17.0917 12.8977 16.5946V10.6857Z"
    fill="#3876C1" />
</svg>