<svg viewBox="0 0 196 13" xmlns="http://www.w3.org/2000/svg">
  <path fill-rule="evenodd" clip-rule="evenodd"
    d="M6.43795 11.2133C6.43795 11.2736 6.48681 11.3225 6.54707 11.3225H8.38572C8.44599 11.3225 8.49484 11.2736 8.49484 11.2133V10.2967C8.49484 10.2365 8.5437 10.1876 8.60396 10.1876H8.9204C9.68642 10.1876 10.3768 10.0931 10.9915 9.90391C11.6156 9.70532 12.1452 9.42161 12.5802 9.05279C13.0247 8.68396 13.3652 8.2253 13.6016 7.6768C13.838 7.12829 13.9562 6.49941 13.9562 5.79013C13.9562 5.08086 13.838 4.45197 13.6016 3.90347C13.3652 3.35497 13.0247 2.8963 12.5802 2.52748C12.1452 2.15866 11.6156 1.87968 10.9915 1.69054C10.3768 1.49195 9.68642 1.39265 8.9204 1.39265H8.60396C8.5437 1.39265 8.49484 1.34379 8.49484 1.28353V0.366931C8.49484 0.306667 8.44599 0.257812 8.38572 0.257812H6.54707C6.48681 0.257812 6.43795 0.306667 6.43795 0.366931V1.28353C6.43795 1.34379 6.3891 1.39265 6.32884 1.39265H6.01239C5.24638 1.39265 4.55129 1.49195 3.92713 1.69054C3.31243 1.87968 2.78284 2.15866 2.33836 2.52748C1.90334 2.8963 1.56762 3.35497 1.3312 3.90347C1.09477 4.45197 0.976562 5.08086 0.976562 5.79013C0.976562 6.49941 1.09477 7.12829 1.3312 7.6768C1.56762 8.2253 1.90334 8.68396 2.33836 9.05279C2.78284 9.42161 3.31243 9.70532 3.92713 9.90391C4.55129 10.0931 5.24638 10.1876 6.01239 10.1876H6.32884C6.3891 10.1876 6.43795 10.2365 6.43795 10.2967V11.2133ZM8.9204 9.12371H8.60396C8.5437 9.12371 8.49484 9.07486 8.49484 9.0146V2.56567C8.49484 2.50541 8.5437 2.45656 8.60396 2.45656H8.9204C9.30814 2.45656 9.67223 2.51803 10.0127 2.64097C10.3626 2.76391 10.6652 2.95777 10.9206 3.22257C11.1759 3.48736 11.3792 3.83254 11.5305 4.25811C11.6818 4.67421 11.7575 5.18489 11.7575 5.79013C11.7575 6.39538 11.6818 6.91078 11.5305 7.33635C11.3792 7.75245 11.1759 8.0929 10.9206 8.3577C10.6652 8.62249 10.3626 8.81636 10.0127 8.9393C9.67223 9.06224 9.30814 9.12371 8.9204 9.12371ZM6.01239 2.45656H6.32884C6.3891 2.45656 6.43795 2.50541 6.43795 2.56567V9.0146C6.43795 9.07486 6.3891 9.12371 6.32884 9.12371H6.01239C5.62466 9.12371 5.25583 9.06224 4.90593 8.9393C4.56548 8.81636 4.26758 8.62249 4.01225 8.3577C3.75691 8.0929 3.55358 7.75245 3.40227 7.33635C3.25096 6.91078 3.1753 6.39538 3.1753 5.79013C3.1753 5.18489 3.25096 4.67421 3.40227 4.25811C3.55358 3.83254 3.75691 3.48736 4.01225 3.22257C4.26758 2.95777 4.56548 2.76391 4.90593 2.64097C5.25583 2.51803 5.62466 2.45656 6.01239 2.45656ZM42.7614 9.97458C43.4045 9.97458 44.0192 9.86583 44.6055 9.64832C45.17 9.43326 45.7091 9.09509 46.2227 8.6338C46.2692 8.59197 46.3414 8.59646 46.3815 8.64455L46.9509 9.32777C46.988 9.3723 46.9839 9.43816 46.9407 9.47679C46.4167 9.9453 45.7896 10.3193 45.0594 10.5987C44.2934 10.8919 43.4801 11.0385 42.6195 11.0385C41.7306 11.0385 40.9268 10.925 40.208 10.698C39.4987 10.4711 38.8888 10.1354 38.3781 9.69088C37.8769 9.2464 37.4891 8.6979 37.2149 8.04537C36.9406 7.39283 36.8035 6.64101 36.8035 5.78988C36.8035 4.93875 36.9359 4.18692 37.2007 3.53439C37.475 2.88186 37.858 2.33336 38.3497 1.88888C38.8509 1.44441 39.4515 1.10868 40.1513 0.881716C40.8511 0.654749 41.6266 0.541266 42.4777 0.541266C43.3383 0.541266 44.1516 0.687848 44.9176 0.981014C45.6478 1.26047 46.2749 1.63446 46.7988 2.10297C46.842 2.1416 46.8461 2.20746 46.809 2.25199L46.2397 2.93521C46.1996 2.98329 46.1274 2.98778 46.0808 2.94598C45.5672 2.48517 45.0282 2.15172 44.4637 1.94562C43.8773 1.71866 43.2626 1.60517 42.6195 1.60517C42.1089 1.60517 41.6313 1.69029 41.1868 1.86051C40.7423 2.02128 40.3593 2.27189 40.0378 2.61234C39.7163 2.95279 39.4609 3.38781 39.2718 3.9174C39.0921 4.43753 39.0023 5.06169 39.0023 5.78988C39.0023 6.51807 39.0921 7.14695 39.2718 7.67654C39.4609 8.19668 39.721 8.62697 40.052 8.96742C40.3924 9.30787 40.7896 9.56321 41.2436 9.73343C41.707 9.8942 42.2129 9.97458 42.7614 9.97458ZM67.3643 9.97458C68.0073 9.97458 68.622 9.86583 69.2084 9.64832C69.7729 9.43326 70.312 9.09509 70.8255 8.6338C70.8721 8.59197 70.9443 8.59646 70.9844 8.64455L71.5537 9.32777C71.5908 9.3723 71.5867 9.43816 71.5435 9.47679C71.0196 9.9453 70.3925 10.3193 69.6623 10.5987C68.8963 10.8919 68.083 11.0385 67.2224 11.0385C66.3335 11.0385 65.5296 10.925 64.8109 10.698C64.1016 10.4711 63.4916 10.1354 62.981 9.69088C62.4797 9.2464 62.092 8.6979 61.8178 8.04537C61.5435 7.39283 61.4064 6.64101 61.4064 5.78988C61.4064 4.93875 61.5388 4.18692 61.8036 3.53439C62.0778 2.88186 62.4608 2.33336 62.9526 1.88888C63.4538 1.44441 64.0543 1.10868 64.7541 0.881716C65.4539 0.654749 66.2294 0.541266 67.0805 0.541266C67.9411 0.541266 68.7544 0.687848 69.5204 0.981014C70.2506 1.26047 70.8777 1.63446 71.4017 2.10297C71.4449 2.1416 71.449 2.20746 71.4119 2.25199L70.8425 2.93521C70.8025 2.98329 70.7303 2.98778 70.6837 2.94598C70.1701 2.48517 69.631 2.15172 69.0665 1.94562C68.4802 1.71866 67.8655 1.60517 67.2224 1.60517C66.7117 1.60517 66.2342 1.69029 65.7897 1.86051C65.3452 2.02128 64.9622 2.27189 64.6407 2.61234C64.3191 2.95279 64.0638 3.38781 63.8746 3.9174C63.695 4.43753 63.6051 5.06169 63.6051 5.78988C63.6051 6.51807 63.695 7.14695 63.8746 7.67654C64.0638 8.19668 64.3238 8.62697 64.6548 8.96742C64.9953 9.30787 65.3925 9.56321 65.8464 9.73343C66.3098 9.8942 66.8158 9.97458 67.3643 9.97458ZM78.1666 9.80525C77.7695 9.96602 77.3392 10.0464 76.8758 10.0464C76.2232 10.0464 75.6795 9.87618 75.2444 9.53573C74.8418 9.21357 74.5788 8.69242 74.4555 7.97227C74.4443 7.90674 74.4954 7.84766 74.5619 7.84766H80.3839C80.4442 7.84766 80.493 7.79881 80.493 7.73854V6.85468C80.493 6.26835 80.3843 5.74349 80.1668 5.2801C79.9493 4.81671 79.6561 4.42424 79.2873 4.10271C78.9185 3.77171 78.4835 3.5211 77.9822 3.35088C77.481 3.18065 76.9467 3.09554 76.3793 3.09554C75.774 3.09554 75.2208 3.18538 74.7196 3.36506C74.2184 3.53529 73.7833 3.79063 73.4145 4.13108C73.0552 4.46207 72.7715 4.87818 72.5634 5.3794C72.3648 5.87116 72.2655 6.43385 72.2655 7.06746C72.2655 7.71054 72.3695 8.27796 72.5776 8.76972C72.7951 9.26148 73.0977 9.67759 73.4855 10.018C73.8732 10.349 74.3413 10.5996 74.8898 10.7699C75.4478 10.9495 76.0625 11.0394 76.7339 11.0394C77.0365 11.0394 77.3392 11.011 77.6418 10.9543C77.9444 10.907 78.2328 10.8408 78.5071 10.7557C78.7908 10.6611 79.0509 10.5476 79.2873 10.4152C79.5013 10.3 79.6902 10.174 79.854 10.0373C79.8957 10.0026 79.9033 9.94192 79.8731 9.89674L79.4225 9.2207C79.3876 9.16844 79.316 9.15641 79.2652 9.19331C78.907 9.45334 78.5408 9.65732 78.1666 9.80525ZM75.6133 4.17363C75.8497 4.06961 76.105 4.01759 76.3793 4.01759C76.6252 4.01759 76.8663 4.07434 77.1027 4.18782C77.3486 4.29185 77.5614 4.46207 77.7411 4.6985C77.9302 4.92546 78.0815 5.21863 78.195 5.57799C78.3 5.9105 78.3564 6.29967 78.3643 6.74552C78.3653 6.80578 78.3164 6.85468 78.2561 6.85468H74.5045C74.4434 6.85468 74.3942 6.80453 74.3962 6.74351C74.4114 6.28059 74.4671 5.88262 74.5635 5.54962C74.677 5.19026 74.8189 4.89709 74.9891 4.67012C75.1688 4.44316 75.3768 4.27766 75.6133 4.17363ZM100.29 9.80525C99.8926 9.96602 99.4623 10.0464 98.9989 10.0464C98.3464 10.0464 97.8026 9.87618 97.3676 9.53573C96.9649 9.21357 96.7019 8.69242 96.5787 7.97227C96.5675 7.90674 96.6186 7.84766 96.6851 7.84766H102.507C102.567 7.84766 102.616 7.79881 102.616 7.73854V6.85468C102.616 6.26835 102.507 5.74349 102.29 5.2801C102.072 4.81671 101.779 4.42424 101.41 4.10271C101.042 3.77171 100.607 3.5211 100.105 3.35088C99.6042 3.18065 99.0699 3.09554 98.5025 3.09554C97.8972 3.09554 97.344 3.18538 96.8428 3.36506C96.3415 3.53529 95.9065 3.79063 95.5377 4.13108C95.1783 4.46207 94.8946 4.87818 94.6866 5.3794C94.488 5.87116 94.3887 6.43385 94.3887 7.06746C94.3887 7.71054 94.4927 8.27796 94.7008 8.76972C94.9183 9.26148 95.2209 9.67759 95.6086 10.018C95.9964 10.349 96.4645 10.5996 97.013 10.7699C97.5709 10.9495 98.1856 11.0394 98.8571 11.0394C99.1597 11.0394 99.4623 11.011 99.765 10.9543C100.068 10.907 100.356 10.8408 100.63 10.7557C100.914 10.6611 101.174 10.5476 101.41 10.4152C101.624 10.3 101.813 10.174 101.977 10.0373C102.019 10.0026 102.026 9.94192 101.996 9.89674L101.546 9.2207C101.511 9.16844 101.439 9.15641 101.388 9.19331C101.03 9.45334 100.664 9.65732 100.29 9.80525ZM97.7364 4.17363C97.9729 4.06961 98.2282 4.01759 98.5025 4.01759C98.7483 4.01759 98.9895 4.07434 99.2259 4.18782C99.4718 4.29185 99.6846 4.46207 99.8643 4.6985C100.053 4.92546 100.205 5.21863 100.318 5.57799C100.423 5.9105 100.48 6.29967 100.487 6.74552C100.489 6.80578 100.44 6.85468 100.379 6.85468H96.6277C96.5666 6.85468 96.5173 6.80453 96.5193 6.74351C96.5345 6.28059 96.5903 5.88262 96.6867 5.54962C96.8002 5.19026 96.9421 4.89709 97.1123 4.67012C97.292 4.44316 97.5 4.27766 97.7364 4.17363ZM118.864 9.94711C118.599 10.0606 118.315 10.1173 118.012 10.1173C117.71 10.1173 117.426 10.0606 117.161 9.94711C116.896 9.83363 116.665 9.65867 116.466 9.42225C116.268 9.17637 116.107 8.85956 115.984 8.47182C115.87 8.08409 115.814 7.61597 115.814 7.06746C115.814 6.51896 115.87 6.05084 115.984 5.66311C116.107 5.27537 116.268 4.96329 116.466 4.72687C116.665 4.48099 116.896 4.3013 117.161 4.18782C117.426 4.07434 117.71 4.01759 118.012 4.01759C118.315 4.01759 118.599 4.07434 118.864 4.18782C119.128 4.3013 119.36 4.48099 119.559 4.72687C119.757 4.96329 119.913 5.27537 120.027 5.66311C120.15 6.05084 120.211 6.51896 120.211 7.06746C120.211 7.61597 120.15 8.08409 120.027 8.47182C119.913 8.85956 119.757 9.17637 119.559 9.42225C119.36 9.65867 119.128 9.83363 118.864 9.94711ZM119.757 3.36506C119.228 3.18538 118.646 3.09554 118.012 3.09554C117.369 3.09554 116.783 3.18538 116.253 3.36506C115.724 3.53529 115.27 3.79063 114.892 4.13108C114.513 4.46207 114.215 4.87818 113.998 5.3794C113.79 5.87116 113.686 6.43385 113.686 7.06746C113.686 7.71054 113.79 8.27796 113.998 8.76972C114.215 9.26148 114.513 9.67759 114.892 10.018C115.27 10.349 115.724 10.5996 116.253 10.7699C116.783 10.9495 117.369 11.0394 118.012 11.0394C118.646 11.0394 119.228 10.9495 119.757 10.7699C120.296 10.5996 120.755 10.349 121.133 10.018C121.511 9.67759 121.805 9.26148 122.013 8.76972C122.23 8.27796 122.339 7.71054 122.339 7.06746C122.339 6.43385 122.23 5.87116 122.013 5.3794C121.805 4.87818 121.511 4.46207 121.133 4.13108C120.755 3.79063 120.296 3.53529 119.757 3.36506ZM138.022 9.94711C137.757 10.0606 137.474 10.1173 137.171 10.1173C136.868 10.1173 136.585 10.0606 136.32 9.94711C136.055 9.83363 135.823 9.65867 135.625 9.42225C135.426 9.17637 135.265 8.85956 135.143 8.47182C135.029 8.08409 134.972 7.61597 134.972 7.06746C134.972 6.51896 135.029 6.05084 135.143 5.66311C135.265 5.27537 135.426 4.96329 135.625 4.72687C135.823 4.48099 136.055 4.3013 136.32 4.18782C136.585 4.07434 136.868 4.01759 137.171 4.01759C137.474 4.01759 137.757 4.07434 138.022 4.18782C138.287 4.3013 138.519 4.48099 138.717 4.72687C138.916 4.96329 139.072 5.27537 139.185 5.66311C139.308 6.05084 139.37 6.51896 139.37 7.06746C139.37 7.61597 139.308 8.08409 139.185 8.47182C139.072 8.85956 138.916 9.17637 138.717 9.42225C138.519 9.65867 138.287 9.83363 138.022 9.94711ZM138.916 3.36506C138.386 3.18538 137.805 3.09554 137.171 3.09554C136.528 3.09554 135.942 3.18538 135.412 3.36506C134.882 3.53529 134.429 3.79063 134.05 4.13108C133.672 4.46207 133.374 4.87818 133.157 5.3794C132.949 5.87116 132.844 6.43385 132.844 7.06746C132.844 7.71054 132.949 8.27796 133.157 8.76972C133.374 9.26148 133.672 9.67759 134.05 10.018C134.429 10.349 134.882 10.5996 135.412 10.7699C135.942 10.9495 136.528 11.0394 137.171 11.0394C137.805 11.0394 138.386 10.9495 138.916 10.7699C139.455 10.5996 139.914 10.349 140.292 10.018C140.67 9.67759 140.963 9.26148 141.171 8.76972C141.389 8.27796 141.498 7.71054 141.498 7.06746C141.498 6.43385 141.389 5.87116 141.171 5.3794C140.963 4.87818 140.67 4.46207 140.292 4.13108C139.914 3.79063 139.455 3.53529 138.916 3.36506ZM157.667 3.18065C157.364 3.12391 157.062 3.09554 156.759 3.09554C156.116 3.09554 155.53 3.18538 155 3.36506C154.471 3.53529 154.017 3.79063 153.638 4.13108C153.26 4.46207 152.962 4.87818 152.745 5.3794C152.537 5.87116 152.433 6.43385 152.433 7.06746C152.433 7.71054 152.537 8.27796 152.745 8.76972C152.962 9.26148 153.265 9.67759 153.653 10.018C154.04 10.349 154.508 10.5996 155.057 10.7699C155.615 10.9495 156.23 11.0394 156.901 11.0394C157.204 11.0394 157.506 11.011 157.809 10.9543C158.111 10.907 158.4 10.8408 158.674 10.7557C158.958 10.6611 159.218 10.5476 159.454 10.4152C159.668 10.3 159.857 10.174 160.021 10.0373C160.063 10.0025 160.07 9.94192 160.04 9.89674L159.59 9.22071C159.555 9.16844 159.483 9.15641 159.432 9.19331C159.074 9.45334 158.708 9.65732 158.334 9.80525C157.937 9.96602 157.506 10.0464 157.043 10.0464C156.674 10.0464 156.334 9.99439 156.021 9.89037C155.719 9.77688 155.459 9.60193 155.241 9.36551C155.024 9.11963 154.854 8.80755 154.731 8.42927C154.617 8.05099 154.56 7.59705 154.56 7.06746C154.56 6.53787 154.617 6.08394 154.731 5.70566C154.854 5.32738 155.019 5.02003 155.227 4.78361C155.435 4.53773 155.681 4.36277 155.965 4.25875C156.248 4.14526 156.561 4.08852 156.901 4.08852C157.364 4.08852 157.795 4.16891 158.192 4.32967C158.566 4.47761 158.932 4.68159 159.29 4.94162C159.341 4.97852 159.413 4.96649 159.448 4.91422L159.898 4.23819C159.928 4.19301 159.921 4.13238 159.879 4.09759C159.715 3.96088 159.526 3.83492 159.313 3.7197C159.076 3.5873 158.816 3.47855 158.532 3.39343C158.258 3.29886 157.97 3.22794 157.667 3.18065ZM182.733 10.1173C183.036 10.1173 183.32 10.0606 183.585 9.94711C183.849 9.83363 184.081 9.65867 184.28 9.42225C184.478 9.17637 184.634 8.85956 184.748 8.47182C184.871 8.08409 184.932 7.61597 184.932 7.06746C184.932 6.51896 184.871 6.05084 184.748 5.66311C184.634 5.27537 184.478 4.96329 184.28 4.72687C184.081 4.48099 183.849 4.3013 183.585 4.18782C183.32 4.07434 183.036 4.01759 182.733 4.01759C182.431 4.01759 182.147 4.07434 181.882 4.18782C181.618 4.3013 181.386 4.48099 181.187 4.72687C180.989 4.96329 180.828 5.27537 180.705 5.66311C180.591 6.05084 180.535 6.51896 180.535 7.06746C180.535 7.61597 180.591 8.08409 180.705 8.47182C180.828 8.85956 180.989 9.17637 181.187 9.42225C181.386 9.65867 181.618 9.83363 181.882 9.94711C182.147 10.0606 182.431 10.1173 182.733 10.1173ZM182.733 3.09554C183.367 3.09554 183.949 3.18538 184.478 3.36506C185.017 3.53529 185.476 3.79063 185.854 4.13108C186.233 4.46207 186.526 4.87818 186.734 5.3794C186.951 5.87116 187.06 6.43385 187.06 7.06746C187.06 7.71054 186.951 8.27796 186.734 8.76972C186.526 9.26148 186.233 9.67759 185.854 10.018C185.476 10.349 185.017 10.5996 184.478 10.7699C183.949 10.9495 183.367 11.0394 182.733 11.0394C182.09 11.0394 181.504 10.9495 180.974 10.7699C180.445 10.5996 179.991 10.349 179.613 10.018C179.234 9.67759 178.936 9.26148 178.719 8.76972C178.511 8.27796 178.407 7.71054 178.407 7.06746C178.407 6.43385 178.511 5.87116 178.719 5.3794C178.936 4.87818 179.234 4.46207 179.613 4.13108C179.991 3.79063 180.445 3.53529 180.974 3.36506C181.504 3.18538 182.09 3.09554 182.733 3.09554ZM193.72 7.14542C193.764 7.10257 193.764 7.03184 193.72 6.989L191.253 4.58853C191.211 4.54705 191.209 4.47908 191.25 4.43569L192.164 3.46043C192.206 3.41576 192.276 3.41428 192.32 3.45717L195.92 6.98932C195.964 7.03209 195.964 7.10232 195.92 7.1451L192.32 10.6772C192.276 10.7201 192.206 10.7187 192.164 10.674L191.25 9.69873C191.209 9.65534 191.211 9.58737 191.253 9.54589L193.72 7.14542ZM188.204 5.08501C188.161 5.04358 188.159 4.97541 188.2 4.93192L189.114 3.9568C189.156 3.91217 189.226 3.91065 189.27 3.95343L192.373 6.98921C192.417 7.03201 192.417 7.10241 192.373 7.14521L189.27 10.181C189.226 10.2238 189.156 10.2222 189.114 10.1776L188.2 9.2025C188.159 9.15901 188.161 9.09084 188.204 9.04941L190.173 7.14566C190.218 7.10277 190.218 7.03165 190.173 6.98875L188.204 5.08501ZM176.373 6.35794C176.638 6.1026 176.77 5.79525 176.77 5.43588C176.77 5.15217 176.699 4.88738 176.557 4.6415C176.425 4.38616 176.217 4.16865 175.933 3.98897C175.649 3.79983 175.29 3.65325 174.855 3.54922C174.42 3.43574 173.9 3.37899 173.295 3.37899H169.645C169.584 3.37899 169.535 3.42785 169.535 3.48811V10.6463C169.535 10.7066 169.584 10.7554 169.645 10.7554H173.72C174.325 10.7554 174.845 10.7034 175.281 10.5994C175.716 10.4859 176.075 10.3346 176.359 10.1454C176.642 9.95631 176.85 9.73407 176.983 9.47873C177.125 9.21394 177.196 8.93023 177.196 8.62761C177.196 8.20204 177.021 7.82849 176.671 7.50696C176.467 7.30928 176.203 7.15208 175.879 7.03535C175.76 6.99268 175.76 6.71909 175.877 6.67173C176.081 6.58926 176.246 6.48467 176.373 6.35794ZM175.068 8.62761C175.068 8.94914 174.949 9.21867 174.713 9.43618C174.477 9.65369 174.146 9.76244 173.72 9.76244H171.63C171.57 9.76244 171.521 9.71359 171.521 9.65332V7.60189C171.521 7.54163 171.57 7.49277 171.63 7.49277H173.72C174.146 7.49277 174.477 7.60153 174.713 7.81904C174.949 8.03655 175.068 8.30607 175.068 8.62761ZM174.288 6.18771C174.051 6.39576 173.72 6.49979 173.295 6.49979H171.63C171.57 6.49979 171.521 6.45094 171.521 6.39067V4.48109C171.521 4.42083 171.57 4.37197 171.63 4.37197H173.295C173.72 4.37197 174.051 4.48073 174.288 4.69824C174.524 4.90629 174.642 5.15217 174.642 5.43588C174.642 5.71959 174.524 5.9702 174.288 6.18771ZM168.399 4.26286C168.399 4.32312 168.351 4.37197 168.29 4.37197H165.53C165.469 4.37197 165.42 4.42083 165.42 4.48109V10.6463C165.42 10.7066 165.372 10.7554 165.311 10.7554H163.544C163.483 10.7554 163.435 10.7066 163.435 10.6463V4.48109C163.435 4.42083 163.386 4.37197 163.325 4.37197H160.565C160.504 4.37197 160.456 4.32312 160.456 4.26286V3.48811C160.456 3.42785 160.504 3.37899 160.565 3.37899H168.29C168.351 3.37899 168.399 3.42785 168.399 3.48811V4.26286ZM141.851 9.87156C141.851 9.8113 141.9 9.76244 141.96 9.76244H142.418C142.74 9.76244 143 9.65369 143.199 9.43618C143.397 9.20921 143.515 8.84512 143.553 8.3439L143.901 3.48034C143.905 3.42324 143.952 3.37899 144.01 3.37899H150.324C150.384 3.37899 150.433 3.42785 150.433 3.48811V9.65332C150.433 9.71359 150.482 9.76244 150.542 9.76244H151.459C151.519 9.76244 151.568 9.8113 151.568 9.87156V12.7741C151.568 12.8344 151.519 12.8832 151.459 12.8832H150.032C149.978 12.8832 149.931 12.8428 149.924 12.7885L149.666 10.8501C149.658 10.7959 149.612 10.7554 149.558 10.7554H143.862C143.807 10.7554 143.761 10.7959 143.753 10.8501L143.495 12.7885C143.488 12.8428 143.442 12.8832 143.387 12.8832H141.96C141.9 12.8832 141.851 12.8344 141.851 12.7741V9.87156ZM145.468 8.3439C145.449 8.58032 145.393 8.78838 145.298 8.96806C145.213 9.13828 145.118 9.28014 145.014 9.39362C144.91 9.5071 144.811 9.59695 144.717 9.66315C144.674 9.6884 144.694 9.76244 144.743 9.76244H148.338C148.398 9.76244 148.447 9.71359 148.447 9.65332V4.48109C148.447 4.42083 148.398 4.37197 148.338 4.37197H145.854C145.796 4.37197 145.749 4.41622 145.745 4.47332L145.468 8.3439ZM131.208 5.43588C131.208 5.79525 131.075 6.1026 130.81 6.35794C130.684 6.48467 130.518 6.58926 130.315 6.67173C130.198 6.71909 130.197 6.99268 130.316 7.03535C130.641 7.15208 130.905 7.30928 131.108 7.50696C131.458 7.82849 131.633 8.20204 131.633 8.62761C131.633 8.93023 131.562 9.21394 131.42 9.47873C131.288 9.73407 131.08 9.95631 130.796 10.1454C130.512 10.3346 130.153 10.4859 129.718 10.5994C129.283 10.7034 128.763 10.7554 128.158 10.7554H124.082C124.022 10.7554 123.973 10.7066 123.973 10.6463V3.48811C123.973 3.42785 124.022 3.37899 124.082 3.37899H127.732C128.337 3.37899 128.858 3.43574 129.293 3.54922C129.728 3.65325 130.087 3.79983 130.371 3.98897C130.654 4.16865 130.862 4.38616 130.995 4.6415C131.137 4.88738 131.208 5.15217 131.208 5.43588ZM128.158 9.76244C128.583 9.76244 128.914 9.65369 129.151 9.43618C129.387 9.21867 129.505 8.94914 129.505 8.62761C129.505 8.30607 129.387 8.03655 129.151 7.81904C128.914 7.60153 128.583 7.49277 128.158 7.49277H126.068C126.008 7.49277 125.959 7.54163 125.959 7.60189V9.65332C125.959 9.71359 126.008 9.76244 126.068 9.76244H128.158ZM127.732 6.49979C128.158 6.49979 128.489 6.39576 128.725 6.18771C128.962 5.9702 129.08 5.71959 129.08 5.43588C129.08 5.15217 128.962 4.90629 128.725 4.69824C128.489 4.48073 128.158 4.37197 127.732 4.37197H126.068C126.008 4.37197 125.959 4.42083 125.959 4.48109V6.39067C125.959 6.45094 126.008 6.49979 126.068 6.49979H127.732ZM111.939 3.37899C112 3.37899 112.048 3.42785 112.048 3.48811V10.6463C112.048 10.7066 112 10.7554 111.939 10.7554H110.172C110.111 10.7554 110.062 10.7066 110.062 10.6463V7.60189C110.062 7.54163 110.014 7.49277 109.953 7.49277H106.341C106.281 7.49277 106.232 7.54163 106.232 7.60189V10.6463C106.232 10.7066 106.184 10.7554 106.123 10.7554H104.356C104.295 10.7554 104.246 10.7066 104.246 10.6463V3.48811C104.246 3.42785 104.295 3.37899 104.356 3.37899H106.123C106.184 3.37899 106.232 3.42785 106.232 3.48811V6.39067C106.232 6.45094 106.281 6.49979 106.341 6.49979H109.953C110.014 6.49979 110.062 6.45094 110.062 6.39067V3.48811C110.062 3.42785 110.111 3.37899 110.172 3.37899H111.939ZM87.4427 9.47873C87.4855 9.47873 87.5238 9.4524 87.5391 9.41252L89.8274 3.44902C89.8436 3.40684 89.8841 3.37899 89.9293 3.37899H92.6532C92.7134 3.37899 92.7623 3.42785 92.7623 3.48811V10.6463C92.7623 10.7066 92.7134 10.7554 92.6532 10.7554H90.8854C90.8252 10.7554 90.7763 10.7066 90.7763 10.6463V5.44895C90.7763 5.40256 90.7387 5.36496 90.6923 5.36496C90.6575 5.36496 90.6263 5.38646 90.6138 5.41901L88.6044 10.6852C88.5882 10.7275 88.5477 10.7554 88.5024 10.7554H86.3971C86.3519 10.7554 86.3114 10.7276 86.2952 10.6854L84.2717 5.41888C84.2593 5.38639 84.2281 5.36496 84.1933 5.36496C84.1468 5.36496 84.1092 5.4026 84.1092 5.44904V10.6463C84.1092 10.7066 84.0603 10.7554 84.0001 10.7554H82.2323C82.1721 10.7554 82.1232 10.7066 82.1232 10.6463V3.48811C82.1232 3.42785 82.1721 3.37899 82.2323 3.37899H84.9562C85.0014 3.37899 85.0419 3.40684 85.0581 3.44902L87.3464 9.41252C87.3617 9.4524 87.4 9.47873 87.4427 9.47873ZM56.0819 10.6772C56.1257 10.7201 56.1961 10.7187 56.238 10.674L57.1523 9.69873C57.1929 9.65534 57.1914 9.58737 57.1488 9.54589L54.6816 7.14542C54.6376 7.10257 54.6376 7.03184 54.6816 6.989L57.1488 4.58852C57.1914 4.54705 57.1929 4.47908 57.1523 4.43569L56.238 3.46043C56.1961 3.41576 56.1257 3.41428 56.0819 3.45717L52.4819 6.98932C52.4383 7.03209 52.4383 7.10232 52.4819 7.1451L56.0819 10.6772ZM59.1318 10.181C59.1755 10.2238 59.2459 10.2222 59.2877 10.1776L60.2019 9.2025C60.2427 9.15901 60.241 9.09084 60.1981 9.04941L58.2287 7.14566C58.1844 7.10277 58.1844 7.03165 58.2287 6.98875L60.1981 5.08501C60.241 5.04358 60.2427 4.97541 60.2019 4.93192L59.2877 3.9568C59.2459 3.91217 59.1755 3.91065 59.1318 3.95343L56.0286 6.98921C55.9848 7.03201 55.9848 7.10241 56.0286 7.14521L59.1318 10.181ZM32.9472 2.66989C32.9981 2.66989 33.0394 2.71116 33.0394 2.76206V10.6465C33.0394 10.7067 33.0883 10.7556 33.1485 10.7556H34.9872C35.0474 10.7556 35.0963 10.7067 35.0963 10.6465V0.934903C35.0963 0.874638 35.0474 0.825784 34.9872 0.825784H32.4599C32.4232 0.825784 32.3889 0.844253 32.3687 0.87493L27.1088 8.86998C27.0918 8.89589 27.0628 8.91149 27.0318 8.91149C26.9809 8.91149 26.9397 8.87022 26.9397 8.81932V0.934903C26.9397 0.874638 26.8908 0.825784 26.8305 0.825784H24.9919C24.9316 0.825784 24.8828 0.874638 24.8828 0.934902V10.6465C24.8828 10.7067 24.9316 10.7556 24.9919 10.7556H27.5192C27.5559 10.7556 27.5902 10.7371 27.6103 10.7064L32.8702 2.7114C32.8873 2.68549 32.9162 2.66989 32.9472 2.66989ZM17.6842 1.88969C17.6239 1.88969 17.5751 1.93855 17.5751 1.99881V10.6465C17.5751 10.7067 17.5262 10.7556 17.4659 10.7556H15.6273C15.567 10.7556 15.5182 10.7067 15.5182 10.6465V0.934903C15.5182 0.874638 15.567 0.825784 15.6273 0.825784H23.6366C23.6969 0.825784 23.7457 0.874638 23.7457 0.934903V1.78057C23.7457 1.84084 23.6969 1.88969 23.6366 1.88969H17.6842Z"
  />
</svg>