<svg width="151" height="172" viewBox="0 0 151 172" fill="none" xmlns="http://www.w3.org/2000/svg">
<path fill-rule="evenodd" clip-rule="evenodd" d="M82.5418 0.151398V66.6826C82.5418 70.7546 84.1593 74.6597 87.0387 77.5391C89.918 80.4184 93.8232 82.0359 97.8951 82.0359H164.426V184.392C164.426 189.821 162.27 195.028 158.43 198.867C154.591 202.706 149.384 204.863 143.955 204.863H21.1284C15.6991 204.863 10.4922 202.706 6.65308 198.867C2.814 195.028 0.657227 189.821 0.657227 184.392V20.6225C0.657227 15.1933 2.814 9.98634 6.65308 6.14725C10.4922 2.30817 15.6991 0.151398 21.1284 0.151398H82.5418ZM113.248 133.214H39.0304C36.3157 133.214 33.7123 134.292 31.7927 136.212C29.8732 138.131 28.7948 140.735 28.7948 143.449C28.7948 146.164 29.8732 148.767 31.7927 150.687C33.7123 152.607 36.3157 153.685 39.0304 153.685H113.248C115.963 153.685 118.567 152.607 120.486 150.687C122.406 148.767 123.484 146.164 123.484 143.449C123.484 140.735 122.406 138.131 120.486 136.212C118.567 134.292 115.963 133.214 113.248 133.214ZM62.0706 92.2715H39.0304C36.3157 92.2715 33.7123 93.3499 31.7927 95.2694C29.8732 97.189 28.7948 99.7924 28.7948 102.507C28.7948 105.222 29.8732 107.825 31.7927 109.745C33.7123 111.664 36.3157 112.743 39.0304 112.743H62.0706C64.7853 112.743 67.3887 111.664 69.3083 109.745C71.2278 107.825 72.3062 105.222 72.3062 102.507C72.3062 99.7924 71.2278 97.189 69.3083 95.2694C67.3887 93.3499 64.7853 92.2715 62.0706 92.2715ZM103.013 0.591527C106.891 1.41401 110.447 3.34481 113.248 6.14944L158.428 51.3292C161.233 54.131 163.164 57.6868 163.986 61.5648H103.013V0.591527Z" fill="white"/>
</svg>
