<svg width="195" height="175" viewBox="0 0 195 175" fill="none" xmlns="http://www.w3.org/2000/svg">
<path d="M61.9015 111.989C57.1382 82.2226 74.3145 52.1881 103.363 41.395C115.969 36.7108 128.375 36.1763 139.921 38.9745C151.413 41.7593 164.93 37.6287 168.962 26.5126C172.016 18.091 168.546 8.51145 160.089 5.55385C138.857 -1.8723 114.06 -2.00065 90.4924 6.7563C42.0787 24.7449 15.3496 75.674 25.9371 125.352L2.73159 133.975C0.45228 134.821 0.230332 137.958 2.36767 139.118L63.046 172.033C64.5535 172.851 66.436 172.151 67.0438 170.548L91.5074 105.997C92.3691 103.723 90.1528 101.492 87.8735 102.339L61.9015 111.989ZM190.013 35.4559C188.505 34.6381 186.623 35.3376 186.015 36.9413L161.551 101.492C160.69 103.766 162.906 105.997 165.185 105.15L191.157 95.4997C194.537 125.78 178.744 155.301 149.696 166.094C136.797 170.887 124.109 171.335 112.336 168.315C101.18 165.453 88.0467 169.276 83.8465 179.999C80.6334 188.202 83.7559 197.717 91.9652 200.915C113.64 209.357 138.731 209.589 162.566 200.733C210.98 182.744 237.709 131.815 227.122 82.1367L250.327 73.5145C252.606 72.6676 252.828 69.531 250.691 68.3715L190.013 35.4559Z" fill="white"/>
</svg>
