<svg width="166" height="180" viewBox="0 0 166 180" fill="none" xmlns="http://www.w3.org/2000/svg">
    <path fill-rule="evenodd" clip-rule="evenodd"
        d="M130.026 5.9078C130.97 7.7499 131.209 10.1152 131.676 14.8458C132.565 23.7838 133.01 28.2528 134.876 30.7162C136.039 32.2457 137.584 33.4387 139.355 34.1739C141.125 34.909 143.058 35.1602 144.956 34.9018C147.994 34.4985 151.466 31.6536 158.388 25.9638C162.045 22.9445 163.878 21.4403 165.842 20.8081C168.343 20.0052 171.05 20.1407 173.459 21.1896C175.358 22.018 177.039 23.6966 180.37 27.0538L190.07 36.7984C193.412 40.1556 195.083 41.8342 195.908 43.7417C196.952 46.1621 197.087 48.8808 196.287 51.3935C195.658 53.3664 194.161 55.2085 191.166 58.8818C185.492 65.8469 182.66 69.324 182.247 72.3869C181.993 74.2933 182.246 76.2332 182.98 78.0098C183.713 79.7863 184.902 81.3362 186.425 82.5021C188.866 84.3769 193.325 84.8238 202.233 85.7176C206.931 86.1863 209.286 86.4261 211.13 87.3744C213.457 88.5864 215.268 90.6037 216.23 93.0533C217 94.9826 217 97.3588 217 102.111V115.889C217 120.641 217 123.017 216.241 124.936C215.276 127.393 213.456 129.415 211.119 130.626C209.286 131.574 206.931 131.814 202.222 132.282C193.325 133.176 188.877 133.623 186.425 135.498C184.902 136.666 183.715 138.218 182.983 139.997C182.251 141.775 182.001 143.717 182.258 145.624C182.671 148.676 185.502 152.164 191.166 159.118C194.161 162.791 195.658 164.623 196.287 166.606C197.087 169.119 196.952 171.838 195.908 174.258C195.083 176.166 193.412 177.844 190.07 181.202L180.37 190.935C177.029 194.303 175.358 195.982 173.459 196.799C171.05 197.848 168.343 197.984 165.842 197.181C163.878 196.549 162.045 195.045 158.388 192.036C151.455 186.346 147.994 183.501 144.956 183.098C143.058 182.84 141.125 183.091 139.355 183.826C137.584 184.561 136.039 185.754 134.876 187.284C133.01 189.736 132.565 194.205 131.676 203.154C131.209 207.885 130.97 210.25 130.026 212.092C128.824 214.438 126.816 216.266 124.374 217.237C122.453 218 120.088 218 115.357 218H101.643C96.9122 218 94.5469 218 92.6373 217.237C90.1912 216.268 88.1786 214.44 86.9736 212.092C86.0296 210.25 85.791 207.885 85.3244 203.154C84.4347 194.216 83.9899 189.747 82.1237 187.284C80.9619 185.756 79.4186 184.564 77.6502 183.829C75.8819 183.094 73.9515 182.842 72.0548 183.098C69.006 183.501 65.5449 186.346 58.6117 192.036C54.9552 195.055 53.1216 196.56 51.1578 197.192C48.6565 197.995 45.9504 197.859 43.541 196.81C41.6423 195.982 39.9606 194.303 36.6296 190.946L26.9297 181.202C23.5879 177.844 21.917 176.166 21.0924 174.258C20.0483 171.838 19.9134 169.119 20.7127 166.606C21.3419 164.634 22.8393 162.791 25.8339 159.118C31.5084 152.153 34.3403 148.676 34.7417 145.613C34.9969 143.708 34.7459 141.768 34.0142 139.992C33.2825 138.215 32.0961 136.665 30.5753 135.498C28.134 133.623 23.6747 133.176 14.7669 132.282C10.0688 131.814 7.71435 131.574 5.86985 130.626C3.54304 129.414 1.73162 127.396 0.770351 124.947C1.0509e-06 123.017 0 120.641 0 115.889V102.111C0 97.3588 -7.27549e-07 94.9826 0.759499 93.0642C1.72392 90.6069 3.54377 88.585 5.8807 87.3744C7.71435 86.4261 10.0688 86.1863 14.7777 85.7176C23.6747 84.8238 28.134 84.3769 30.5753 82.5021C32.098 81.3362 33.2865 79.7863 34.0202 78.0098C34.7539 76.2332 35.0065 74.2933 34.7526 72.3869C34.3403 69.324 31.4976 65.8469 25.8339 58.8709C22.8393 55.1976 21.3419 53.3664 20.7127 51.3826C19.9134 48.8699 20.0483 46.1512 21.0924 43.7308C21.917 41.8342 23.5879 40.1447 26.9297 36.7875L36.6296 27.0538C39.9714 23.6966 41.6423 22.0071 43.541 21.1896C45.9504 20.1407 48.6565 20.0052 51.1578 20.8081C53.1216 21.4403 54.9552 22.9445 58.6117 25.9529C65.5449 31.6427 69.006 34.4876 72.044 34.9018C73.9451 35.161 75.8805 34.9091 77.6531 34.1719C79.4257 33.4347 80.9721 32.2385 82.1345 30.7053C83.979 28.2528 84.4347 23.7838 85.3244 14.8349C85.791 10.1152 86.0296 7.7499 86.9736 5.8969C88.178 3.55527 90.1863 1.73139 92.6264 0.762999C94.5469 -7.30902e-07 96.9122 0 101.643 0H115.357C120.088 0 122.453 -7.30902e-07 124.363 0.762999C126.809 1.73187 128.821 3.5601 130.026 5.9078ZM108.5 152.6C120.01 152.6 131.049 148.006 139.188 139.83C147.328 131.653 151.9 120.563 151.9 109C151.9 97.4366 147.328 86.3467 139.188 78.1701C131.049 69.9936 120.01 65.4 108.5 65.4C96.9896 65.4 85.9506 69.9936 77.8116 78.1701C69.6725 86.3467 65.1 97.4366 65.1 109C65.1 120.563 69.6725 131.653 77.8116 139.83C85.9506 148.006 96.9896 152.6 108.5 152.6Z"
        fill="white" />
</svg>