<svg width="20" height="21" viewBox="0 0 20 21" fill="none" xmlns="http://www.w3.org/2000/svg">
<path fill-rule="evenodd" clip-rule="evenodd" d="M4.99967 17.8759H14.9997C15.2298 17.8759 15.4163 17.6893 15.4163 17.4592V7.793C15.4163 7.68046 15.3708 7.57271 15.2901 7.49426L11.5182 3.82715C11.4405 3.75153 11.3363 3.70923 11.2278 3.70923H4.99967C4.76956 3.70923 4.58301 3.89578 4.58301 4.1259V17.4592C4.58301 17.6893 4.76956 17.8759 4.99967 17.8759ZM4.99967 2.45923C4.0792 2.45923 3.33301 3.20542 3.33301 4.1259V17.4592C3.33301 18.3797 4.0792 19.1259 4.99967 19.1259H14.9997C15.9201 19.1259 16.6663 18.3797 16.6663 17.4592V7.793C16.6663 7.34284 16.4842 6.91181 16.1615 6.59801L12.3896 2.9309C12.0785 2.62844 11.6617 2.45923 11.2278 2.45923H4.99967Z" fill="#96A1BD"/>
<path fill-rule="evenodd" clip-rule="evenodd" d="M11.4061 2.50401C11.7513 2.50401 12.0311 2.78384 12.0311 3.12901V7.02674C12.0311 7.1418 12.1244 7.23508 12.2394 7.23508H15.9552C16.3004 7.23508 16.5802 7.5149 16.5802 7.86008C16.5802 8.20525 16.3004 8.48508 15.9552 8.48508H12.2394C11.434 8.48508 10.7811 7.83216 10.7811 7.02674V3.12901C10.7811 2.78384 11.0609 2.50401 11.4061 2.50401Z" fill="#96A1BD"/>
<path fill-rule="evenodd" clip-rule="evenodd" d="M6.04134 11.9305C6.04134 11.5853 6.32116 11.3055 6.66634 11.3055H13.333C13.6782 11.3055 13.958 11.5853 13.958 11.9305C13.958 12.2756 13.6782 12.5555 13.333 12.5555H6.66634C6.32116 12.5555 6.04134 12.2756 6.04134 11.9305Z" fill="#96A1BD"/>
<path fill-rule="evenodd" clip-rule="evenodd" d="M6.04134 14.8212C6.04134 14.4761 6.32116 14.1962 6.66634 14.1962H11.6663C12.0115 14.1962 12.2913 14.4761 12.2913 14.8212C12.2913 15.1664 12.0115 15.4462 11.6663 15.4462H6.66634C6.32116 15.4462 6.04134 15.1664 6.04134 14.8212Z" fill="#96A1BD"/>
</svg>
