<svg width="196" height="14" viewBox="0 0 196 14" fill="none" xmlns="http://www.w3.org/2000/svg">
  
  <path fill-rule="evenodd" clip-rule="evenodd"
    d="M6.43795 11.8173C6.43795 11.8776 6.48681 11.9265 6.54707 11.9265H8.38572C8.44599 11.9265 8.49484 11.8776 8.49484 11.8173V10.9007C8.49484 10.8405 8.5437 10.7916 8.60396 10.7916H8.9204C9.68642 10.7916 10.3768 10.6971 10.9915 10.5079C11.6156 10.3093 12.1452 10.0256 12.5802 9.65679C13.0247 9.28797 13.3652 8.82931 13.6016 8.2808C13.838 7.7323 13.9562 7.10341 13.9562 6.39414C13.9562 5.68487 13.838 5.05598 13.6016 4.50747C13.3652 3.95897 13.0247 3.50031 12.5802 3.13149C12.1452 2.76267 11.6156 2.48369 10.9915 2.29455C10.3768 2.09595 9.68642 1.99665 8.9204 1.99665H8.60396C8.5437 1.99665 8.49484 1.9478 8.49484 1.88753V0.970935C8.49484 0.910671 8.44599 0.861816 8.38572 0.861816H6.54707C6.48681 0.861816 6.43795 0.910671 6.43795 0.970935V1.88753C6.43795 1.9478 6.3891 1.99665 6.32884 1.99665H6.01239C5.24638 1.99665 4.55129 2.09595 3.92713 2.29455C3.31243 2.48369 2.78284 2.76267 2.33836 3.13149C1.90334 3.50031 1.56762 3.95897 1.3312 4.50747C1.09477 5.05598 0.976562 5.68487 0.976562 6.39414C0.976562 7.10341 1.09477 7.7323 1.3312 8.2808C1.56762 8.82931 1.90334 9.28797 2.33836 9.65679C2.78284 10.0256 3.31243 10.3093 3.92713 10.5079C4.55129 10.6971 5.24638 10.7916 6.01239 10.7916H6.32884C6.3891 10.7916 6.43795 10.8405 6.43795 10.9007V11.8173ZM8.9204 9.72772H8.60396C8.5437 9.72772 8.49484 9.67886 8.49484 9.6186V3.16968C8.49484 3.10941 8.5437 3.06056 8.60396 3.06056H8.9204C9.30814 3.06056 9.67223 3.12203 10.0127 3.24497C10.3626 3.36791 10.6652 3.56178 10.9206 3.82657C11.1759 4.09137 11.3792 4.43655 11.5305 4.86211C11.6818 5.27822 11.7575 5.78889 11.7575 6.39414C11.7575 6.99938 11.6818 7.51479 11.5305 7.94035C11.3792 8.35646 11.1759 8.69691 10.9206 8.9617C10.6652 9.2265 10.3626 9.42037 10.0127 9.54331C9.67223 9.66625 9.30814 9.72772 8.9204 9.72772ZM6.01239 3.06056H6.32884C6.3891 3.06056 6.43795 3.10941 6.43795 3.16968V9.6186C6.43795 9.67886 6.3891 9.72772 6.32884 9.72772H6.01239C5.62466 9.72772 5.25583 9.66625 4.90593 9.54331C4.56548 9.42037 4.26758 9.2265 4.01225 8.9617C3.75691 8.69691 3.55358 8.35646 3.40227 7.94035C3.25096 7.51479 3.1753 6.99938 3.1753 6.39414C3.1753 5.78889 3.25096 5.27822 3.40227 4.86211C3.55358 4.43655 3.75691 4.09137 4.01225 3.82657C4.26758 3.56178 4.56548 3.36791 4.90593 3.24497C5.25583 3.12203 5.62466 3.06056 6.01239 3.06056ZM42.7614 10.5786C43.4045 10.5786 44.0192 10.4698 44.6055 10.2523C45.17 10.0373 45.7091 9.69909 46.2227 9.2378C46.2692 9.19598 46.3414 9.20047 46.3815 9.24855L46.9509 9.93178C46.988 9.97631 46.9839 10.0422 46.9407 10.0808C46.4167 10.5493 45.7896 10.9233 45.0594 11.2027C44.2934 11.4959 43.4801 11.6425 42.6195 11.6425C41.7306 11.6425 40.9268 11.529 40.208 11.302C39.4987 11.0751 38.8888 10.7394 38.3781 10.2949C37.8769 9.8504 37.4891 9.3019 37.2149 8.64937C36.9406 7.99684 36.8035 7.24501 36.8035 6.39388C36.8035 5.54276 36.9359 4.79093 37.2007 4.1384C37.475 3.48587 37.858 2.93736 38.3497 2.49289C38.8509 2.04841 39.4515 1.71269 40.1513 1.48572C40.8511 1.25875 41.6266 1.14527 42.4777 1.14527C43.3383 1.14527 44.1516 1.29185 44.9176 1.58502C45.6478 1.86448 46.2749 2.23846 46.7988 2.70697C46.842 2.74561 46.8461 2.81146 46.809 2.85599L46.2397 3.53921C46.1996 3.5873 46.1274 3.59179 46.0808 3.54999C45.5672 3.08918 45.0282 2.75572 44.4637 2.54963C43.8773 2.32266 43.2626 2.20918 42.6195 2.20918C42.1089 2.20918 41.6313 2.29429 41.1868 2.46452C40.7423 2.62528 40.3593 2.87589 40.0378 3.21634C39.7163 3.55679 39.4609 3.99181 39.2718 4.5214C39.0921 5.04154 39.0023 5.6657 39.0023 6.39388C39.0023 7.12207 39.0921 7.75096 39.2718 8.28055C39.4609 8.80068 39.721 9.23097 40.052 9.57142C40.3924 9.91187 40.7896 10.1672 41.2436 10.3374C41.707 10.4982 42.2129 10.5786 42.7614 10.5786ZM67.3643 10.5786C68.0073 10.5786 68.622 10.4698 69.2084 10.2523C69.7729 10.0373 70.312 9.69909 70.8255 9.2378C70.8721 9.19598 70.9443 9.20047 70.9844 9.24855L71.5537 9.93178C71.5908 9.97631 71.5867 10.0422 71.5435 10.0808C71.0196 10.5493 70.3925 10.9233 69.6623 11.2027C68.8963 11.4959 68.083 11.6425 67.2224 11.6425C66.3335 11.6425 65.5296 11.529 64.8109 11.302C64.1016 11.0751 63.4916 10.7394 62.981 10.2949C62.4797 9.8504 62.092 9.3019 61.8178 8.64937C61.5435 7.99684 61.4064 7.24501 61.4064 6.39388C61.4064 5.54276 61.5388 4.79093 61.8036 4.1384C62.0778 3.48587 62.4608 2.93736 62.9526 2.49289C63.4538 2.04841 64.0543 1.71269 64.7541 1.48572C65.4539 1.25875 66.2294 1.14527 67.0805 1.14527C67.9411 1.14527 68.7544 1.29185 69.5204 1.58502C70.2506 1.86448 70.8777 2.23846 71.4017 2.70697C71.4449 2.74561 71.449 2.81146 71.4119 2.85599L70.8425 3.53921C70.8025 3.5873 70.7303 3.59179 70.6837 3.54999C70.1701 3.08918 69.631 2.75572 69.0665 2.54963C68.4802 2.32266 67.8655 2.20918 67.2224 2.20918C66.7117 2.20918 66.2342 2.29429 65.7897 2.46452C65.3452 2.62528 64.9622 2.87589 64.6407 3.21634C64.3191 3.55679 64.0638 3.99181 63.8746 4.5214C63.695 5.04154 63.6051 5.6657 63.6051 6.39388C63.6051 7.12207 63.695 7.75096 63.8746 8.28055C64.0638 8.80068 64.3238 9.23097 64.6548 9.57142C64.9953 9.91187 65.3925 10.1672 65.8464 10.3374C66.3098 10.4982 66.8158 10.5786 67.3643 10.5786ZM78.1666 10.4093C77.7695 10.57 77.3392 10.6504 76.8758 10.6504C76.2232 10.6504 75.6795 10.4802 75.2444 10.1397C74.8418 9.81758 74.5788 9.29642 74.4555 8.57627C74.4443 8.51074 74.4954 8.45167 74.5619 8.45167H80.3839C80.4442 8.45167 80.493 8.40281 80.493 8.34255V7.45869C80.493 6.87235 80.3843 6.34749 80.1668 5.8841C79.9493 5.42071 79.6561 5.02825 79.2873 4.70671C78.9185 4.37572 78.4835 4.12511 77.9822 3.95488C77.481 3.78466 76.9467 3.69954 76.3793 3.69954C75.774 3.69954 75.2208 3.78939 74.7196 3.96907C74.2184 4.13929 73.7833 4.39463 73.4145 4.73508C73.0552 5.06608 72.7715 5.48218 72.5634 5.9834C72.3648 6.47516 72.2655 7.03785 72.2655 7.67147C72.2655 8.31454 72.3695 8.88196 72.5776 9.37372C72.7951 9.86548 73.0977 10.2816 73.4855 10.622C73.8732 10.953 74.3413 11.2036 74.8898 11.3739C75.4478 11.5536 76.0625 11.6434 76.7339 11.6434C77.0365 11.6434 77.3392 11.615 77.6418 11.5583C77.9444 11.511 78.2328 11.4448 78.5071 11.3597C78.7908 11.2651 79.0509 11.1516 79.2873 11.0192C79.5013 10.904 79.6902 10.778 79.854 10.6413C79.8957 10.6066 79.9033 10.5459 79.8731 10.5007L79.4225 9.82471C79.3876 9.77245 79.316 9.76041 79.2652 9.79731C78.907 10.0573 78.5408 10.2613 78.1666 10.4093ZM75.6133 4.77764C75.8497 4.67361 76.105 4.6216 76.3793 4.6216C76.6252 4.6216 76.8663 4.67834 77.1027 4.79182C77.3486 4.89585 77.5614 5.06608 77.7411 5.3025C77.9302 5.52947 78.0815 5.82263 78.195 6.182C78.3 6.5145 78.3564 6.90368 78.3643 7.34953C78.3653 7.40978 78.3164 7.45869 78.2561 7.45869H74.5045C74.4434 7.45869 74.3942 7.40854 74.3962 7.34752C74.4114 6.88459 74.4671 6.48663 74.5635 6.15363C74.677 5.79426 74.8189 5.5011 74.9891 5.27413C75.1688 5.04716 75.3768 4.88166 75.6133 4.77764ZM100.29 10.4093C99.8926 10.57 99.4623 10.6504 98.9989 10.6504C98.3464 10.6504 97.8026 10.4802 97.3676 10.1397C96.9649 9.81758 96.7019 9.29642 96.5787 8.57627C96.5675 8.51074 96.6186 8.45167 96.6851 8.45167H102.507C102.567 8.45167 102.616 8.40281 102.616 8.34255V7.45869C102.616 6.87235 102.507 6.34749 102.29 5.8841C102.072 5.42071 101.779 5.02825 101.41 4.70671C101.042 4.37572 100.607 4.12511 100.105 3.95488C99.6042 3.78466 99.0699 3.69954 98.5025 3.69954C97.8972 3.69954 97.344 3.78939 96.8428 3.96907C96.3415 4.13929 95.9065 4.39463 95.5377 4.73508C95.1783 5.06608 94.8946 5.48218 94.6866 5.9834C94.488 6.47516 94.3887 7.03785 94.3887 7.67147C94.3887 8.31454 94.4927 8.88196 94.7008 9.37372C94.9183 9.86548 95.2209 10.2816 95.6086 10.622C95.9964 10.953 96.4645 11.2036 97.013 11.3739C97.5709 11.5536 98.1856 11.6434 98.8571 11.6434C99.1597 11.6434 99.4623 11.615 99.765 11.5583C100.068 11.511 100.356 11.4448 100.63 11.3597C100.914 11.2651 101.174 11.1516 101.41 11.0192C101.624 10.904 101.813 10.778 101.977 10.6413C102.019 10.6066 102.026 10.5459 101.996 10.5007L101.546 9.82471C101.511 9.77245 101.439 9.76041 101.388 9.79731C101.03 10.0573 100.664 10.2613 100.29 10.4093ZM97.7364 4.77764C97.9729 4.67361 98.2282 4.6216 98.5025 4.6216C98.7483 4.6216 98.9895 4.67834 99.2259 4.79182C99.4718 4.89585 99.6846 5.06608 99.8643 5.3025C100.053 5.52947 100.205 5.82263 100.318 6.182C100.423 6.5145 100.48 6.90368 100.487 7.34953C100.489 7.40978 100.44 7.45869 100.379 7.45869H96.6277C96.5666 7.45869 96.5173 7.40854 96.5193 7.34752C96.5345 6.88459 96.5903 6.48663 96.6867 6.15363C96.8002 5.79426 96.9421 5.5011 97.1123 5.27413C97.292 5.04716 97.5 4.88166 97.7364 4.77764ZM118.864 10.5511C118.599 10.6646 118.315 10.7213 118.012 10.7213C117.71 10.7213 117.426 10.6646 117.161 10.5511C116.896 10.4376 116.665 10.2627 116.466 10.0263C116.268 9.78037 116.107 9.46356 115.984 9.07583C115.87 8.68809 115.814 8.21997 115.814 7.67147C115.814 7.12296 115.87 6.65484 115.984 6.26711C116.107 5.87937 116.268 5.56729 116.466 5.33087C116.665 5.08499 116.896 4.90531 117.161 4.79182C117.426 4.67834 117.71 4.6216 118.012 4.6216C118.315 4.6216 118.599 4.67834 118.864 4.79182C119.128 4.90531 119.36 5.08499 119.559 5.33087C119.757 5.56729 119.913 5.87937 120.027 6.26711C120.15 6.65484 120.211 7.12296 120.211 7.67147C120.211 8.21997 120.15 8.68809 120.027 9.07583C119.913 9.46356 119.757 9.78037 119.559 10.0263C119.36 10.2627 119.128 10.4376 118.864 10.5511ZM119.757 3.96907C119.228 3.78939 118.646 3.69954 118.012 3.69954C117.369 3.69954 116.783 3.78939 116.253 3.96907C115.724 4.13929 115.27 4.39463 114.892 4.73508C114.513 5.06608 114.215 5.48218 113.998 5.9834C113.79 6.47516 113.686 7.03785 113.686 7.67147C113.686 8.31454 113.79 8.88196 113.998 9.37372C114.215 9.86548 114.513 10.2816 114.892 10.622C115.27 10.953 115.724 11.2036 116.253 11.3739C116.783 11.5536 117.369 11.6434 118.012 11.6434C118.646 11.6434 119.228 11.5536 119.757 11.3739C120.296 11.2036 120.755 10.953 121.133 10.622C121.511 10.2816 121.805 9.86548 122.013 9.37372C122.23 8.88196 122.339 8.31454 122.339 7.67147C122.339 7.03785 122.23 6.47516 122.013 5.9834C121.805 5.48218 121.511 5.06608 121.133 4.73508C120.755 4.39463 120.296 4.13929 119.757 3.96907ZM138.022 10.5511C137.757 10.6646 137.474 10.7213 137.171 10.7213C136.868 10.7213 136.585 10.6646 136.32 10.5511C136.055 10.4376 135.823 10.2627 135.625 10.0263C135.426 9.78037 135.265 9.46356 135.143 9.07583C135.029 8.68809 134.972 8.21997 134.972 7.67147C134.972 7.12296 135.029 6.65484 135.143 6.26711C135.265 5.87937 135.426 5.56729 135.625 5.33087C135.823 5.08499 136.055 4.90531 136.32 4.79182C136.585 4.67834 136.868 4.6216 137.171 4.6216C137.474 4.6216 137.757 4.67834 138.022 4.79182C138.287 4.90531 138.519 5.08499 138.717 5.33087C138.916 5.56729 139.072 5.87937 139.185 6.26711C139.308 6.65484 139.37 7.12296 139.37 7.67147C139.37 8.21997 139.308 8.68809 139.185 9.07583C139.072 9.46356 138.916 9.78037 138.717 10.0263C138.519 10.2627 138.287 10.4376 138.022 10.5511ZM138.916 3.96907C138.386 3.78939 137.805 3.69954 137.171 3.69954C136.528 3.69954 135.942 3.78939 135.412 3.96907C134.882 4.13929 134.429 4.39463 134.05 4.73508C133.672 5.06608 133.374 5.48218 133.157 5.9834C132.949 6.47516 132.844 7.03785 132.844 7.67147C132.844 8.31454 132.949 8.88196 133.157 9.37372C133.374 9.86548 133.672 10.2816 134.05 10.622C134.429 10.953 134.882 11.2036 135.412 11.3739C135.942 11.5536 136.528 11.6434 137.171 11.6434C137.805 11.6434 138.386 11.5536 138.916 11.3739C139.455 11.2036 139.914 10.953 140.292 10.622C140.67 10.2816 140.963 9.86548 141.171 9.37372C141.389 8.88196 141.498 8.31454 141.498 7.67147C141.498 7.03785 141.389 6.47516 141.171 5.9834C140.963 5.48218 140.67 5.06608 140.292 4.73508C139.914 4.39463 139.455 4.13929 138.916 3.96907ZM157.667 3.78466C157.364 3.72792 157.062 3.69954 156.759 3.69954C156.116 3.69954 155.53 3.78939 155 3.96907C154.471 4.13929 154.017 4.39463 153.638 4.73508C153.26 5.06608 152.962 5.48218 152.745 5.9834C152.537 6.47516 152.433 7.03785 152.433 7.67147C152.433 8.31454 152.537 8.88196 152.745 9.37372C152.962 9.86548 153.265 10.2816 153.653 10.622C154.04 10.953 154.508 11.2036 155.057 11.3739C155.615 11.5536 156.23 11.6434 156.901 11.6434C157.204 11.6434 157.506 11.615 157.809 11.5583C158.111 11.511 158.4 11.4448 158.674 11.3597C158.958 11.2651 159.218 11.1516 159.454 11.0192C159.668 10.904 159.857 10.778 160.021 10.6413C160.063 10.6066 160.07 10.5459 160.04 10.5007L159.59 9.82471C159.555 9.77245 159.483 9.76041 159.432 9.79731C159.074 10.0573 158.708 10.2613 158.334 10.4093C157.937 10.57 157.506 10.6504 157.043 10.6504C156.674 10.6504 156.334 10.5984 156.021 10.4944C155.719 10.3809 155.459 10.2059 155.241 9.96951C155.024 9.72363 154.854 9.41155 154.731 9.03327C154.617 8.65499 154.56 8.20106 154.56 7.67147C154.56 7.14188 154.617 6.68794 154.731 6.30967C154.854 5.93139 155.019 5.62404 155.227 5.38761C155.435 5.14173 155.681 4.96678 155.965 4.86275C156.248 4.74927 156.561 4.69252 156.901 4.69252C157.364 4.69252 157.795 4.77291 158.192 4.93368C158.566 5.08161 158.932 5.28559 159.29 5.54562C159.341 5.58252 159.413 5.57049 159.448 5.51823L159.898 4.8422C159.928 4.79701 159.921 4.73638 159.879 4.70159C159.715 4.56489 159.526 4.43892 159.313 4.3237C159.076 4.19131 158.816 4.08255 158.532 3.99744C158.258 3.90287 157.97 3.83194 157.667 3.78466ZM182.733 10.7213C183.036 10.7213 183.32 10.6646 183.585 10.5511C183.849 10.4376 184.081 10.2627 184.28 10.0263C184.478 9.78037 184.634 9.46356 184.748 9.07583C184.871 8.68809 184.932 8.21997 184.932 7.67147C184.932 7.12296 184.871 6.65484 184.748 6.26711C184.634 5.87937 184.478 5.56729 184.28 5.33087C184.081 5.08499 183.849 4.90531 183.585 4.79182C183.32 4.67834 183.036 4.6216 182.733 4.6216C182.431 4.6216 182.147 4.67834 181.882 4.79182C181.618 4.90531 181.386 5.08499 181.187 5.33087C180.989 5.56729 180.828 5.87937 180.705 6.26711C180.591 6.65484 180.535 7.12296 180.535 7.67147C180.535 8.21997 180.591 8.68809 180.705 9.07583C180.828 9.46356 180.989 9.78037 181.187 10.0263C181.386 10.2627 181.618 10.4376 181.882 10.5511C182.147 10.6646 182.431 10.7213 182.733 10.7213ZM182.733 3.69954C183.367 3.69954 183.949 3.78939 184.478 3.96907C185.017 4.13929 185.476 4.39463 185.854 4.73508C186.233 5.06608 186.526 5.48218 186.734 5.9834C186.951 6.47516 187.06 7.03785 187.06 7.67147C187.06 8.31454 186.951 8.88196 186.734 9.37372C186.526 9.86548 186.233 10.2816 185.854 10.622C185.476 10.953 185.017 11.2036 184.478 11.3739C183.949 11.5536 183.367 11.6434 182.733 11.6434C182.09 11.6434 181.504 11.5536 180.974 11.3739C180.445 11.2036 179.991 10.953 179.613 10.622C179.234 10.2816 178.936 9.86548 178.719 9.37372C178.511 8.88196 178.407 8.31454 178.407 7.67147C178.407 7.03785 178.511 6.47516 178.719 5.9834C178.936 5.48218 179.234 5.06608 179.613 4.73508C179.991 4.39463 180.445 4.13929 180.974 3.96907C181.504 3.78939 182.09 3.69954 182.733 3.69954ZM193.72 7.74942C193.764 7.70658 193.764 7.63585 193.72 7.593L191.253 5.19253C191.211 5.15105 191.209 5.08308 191.25 5.03969L192.164 4.06443C192.206 4.01976 192.276 4.01829 192.32 4.06117L195.92 7.59332C195.964 7.6361 195.964 7.70633 195.92 7.7491L192.32 11.2812C192.276 11.3241 192.206 11.3227 192.164 11.278L191.25 10.3027C191.209 10.2593 191.211 10.1914 191.253 10.1499L193.72 7.74942ZM188.204 5.68901C188.161 5.64758 188.159 5.57942 188.2 5.53593L189.114 4.5608C189.156 4.51618 189.226 4.51466 189.27 4.55743L192.373 7.59321C192.417 7.63601 192.417 7.70642 192.373 7.74921L189.27 10.785C189.226 10.8278 189.156 10.8262 189.114 10.7816L188.2 9.8065C188.159 9.76301 188.161 9.69485 188.204 9.65341L190.173 7.74967C190.218 7.70678 190.218 7.63565 190.173 7.59276L188.204 5.68901ZM176.373 6.96194C176.638 6.7066 176.77 6.39925 176.77 6.03989C176.77 5.75618 176.699 5.49138 176.557 5.2455C176.425 4.99016 176.217 4.77265 175.933 4.59297C175.649 4.40383 175.29 4.25725 174.855 4.15322C174.42 4.03974 173.9 3.983 173.295 3.983H169.645C169.584 3.983 169.535 4.03185 169.535 4.09212V11.2503C169.535 11.3106 169.584 11.3594 169.645 11.3594H173.72C174.325 11.3594 174.845 11.3074 175.281 11.2034C175.716 11.0899 176.075 10.9386 176.359 10.7495C176.642 10.5603 176.85 10.3381 176.983 10.0827C177.125 9.81794 177.196 9.53423 177.196 9.23161C177.196 8.80605 177.021 8.4325 176.671 8.11096C176.467 7.91328 176.203 7.75608 175.879 7.63936C175.76 7.59669 175.76 7.3231 175.877 7.27574C176.081 7.19327 176.246 7.08867 176.373 6.96194ZM175.068 9.23161C175.068 9.55315 174.949 9.82267 174.713 10.0402C174.477 10.2577 174.146 10.3664 173.72 10.3664H171.63C171.57 10.3664 171.521 10.3176 171.521 10.2573V8.20589C171.521 8.14563 171.57 8.09678 171.63 8.09678H173.72C174.146 8.09678 174.477 8.20553 174.713 8.42304C174.949 8.64055 175.068 8.91008 175.068 9.23161ZM174.288 6.79172C174.051 6.99977 173.72 7.1038 173.295 7.1038H171.63C171.57 7.1038 171.521 7.05494 171.521 6.99468V5.0851C171.521 5.02483 171.57 4.97598 171.63 4.97598H173.295C173.72 4.97598 174.051 5.08473 174.288 5.30224C174.524 5.5103 174.642 5.75618 174.642 6.03989C174.642 6.3236 174.524 6.5742 174.288 6.79172ZM168.399 4.86686C168.399 4.92712 168.351 4.97598 168.29 4.97598H165.53C165.469 4.97598 165.42 5.02483 165.42 5.0851V11.2503C165.42 11.3106 165.372 11.3594 165.311 11.3594H163.544C163.483 11.3594 163.435 11.3106 163.435 11.2503V5.0851C163.435 5.02483 163.386 4.97598 163.325 4.97598H160.565C160.504 4.97598 160.456 4.92712 160.456 4.86686V4.09212C160.456 4.03185 160.504 3.983 160.565 3.983H168.29C168.351 3.983 168.399 4.03185 168.399 4.09212V4.86686ZM141.851 10.4756C141.851 10.4153 141.9 10.3664 141.96 10.3664H142.418C142.74 10.3664 143 10.2577 143.199 10.0402C143.397 9.81322 143.515 9.44912 143.553 8.9479L143.901 4.08434C143.905 4.02724 143.952 3.983 144.01 3.983H150.324C150.384 3.983 150.433 4.03185 150.433 4.09212V10.2573C150.433 10.3176 150.482 10.3664 150.542 10.3664H151.459C151.519 10.3664 151.568 10.4153 151.568 10.4756V13.3781C151.568 13.4384 151.519 13.4872 151.459 13.4872H150.032C149.978 13.4872 149.931 13.4468 149.924 13.3925L149.666 11.4541C149.658 11.3999 149.612 11.3594 149.558 11.3594H143.862C143.807 11.3594 143.761 11.3999 143.753 11.4541L143.495 13.3925C143.488 13.4468 143.442 13.4872 143.387 13.4872H141.96C141.9 13.4872 141.851 13.4384 141.851 13.3781V10.4756ZM145.468 8.9479C145.449 9.18433 145.393 9.39238 145.298 9.57206C145.213 9.74229 145.118 9.88414 145.014 9.99763C144.91 10.1111 144.811 10.2009 144.717 10.2671C144.674 10.2924 144.694 10.3664 144.743 10.3664H148.338C148.398 10.3664 148.447 10.3176 148.447 10.2573V5.0851C148.447 5.02483 148.398 4.97598 148.338 4.97598H145.854C145.796 4.97598 145.749 5.02022 145.745 5.07732L145.468 8.9479ZM131.208 6.03989C131.208 6.39925 131.075 6.7066 130.81 6.96194C130.684 7.08867 130.518 7.19327 130.315 7.27574C130.198 7.3231 130.197 7.59669 130.316 7.63936C130.641 7.75608 130.905 7.91328 131.108 8.11096C131.458 8.4325 131.633 8.80605 131.633 9.23161C131.633 9.53423 131.562 9.81794 131.42 10.0827C131.288 10.3381 131.08 10.5603 130.796 10.7495C130.512 10.9386 130.153 11.0899 129.718 11.2034C129.283 11.3074 128.763 11.3594 128.158 11.3594H124.082C124.022 11.3594 123.973 11.3106 123.973 11.2503V4.09212C123.973 4.03185 124.022 3.983 124.082 3.983H127.732C128.337 3.983 128.858 4.03974 129.293 4.15322C129.728 4.25725 130.087 4.40383 130.371 4.59297C130.654 4.77265 130.862 4.99016 130.995 5.2455C131.137 5.49138 131.208 5.75618 131.208 6.03989ZM128.158 10.3664C128.583 10.3664 128.914 10.2577 129.151 10.0402C129.387 9.82267 129.505 9.55315 129.505 9.23161C129.505 8.91008 129.387 8.64055 129.151 8.42304C128.914 8.20553 128.583 8.09678 128.158 8.09678H126.068C126.008 8.09678 125.959 8.14563 125.959 8.20589V10.2573C125.959 10.3176 126.008 10.3664 126.068 10.3664H128.158ZM127.732 7.1038C128.158 7.1038 128.489 6.99977 128.725 6.79172C128.962 6.5742 129.08 6.3236 129.08 6.03989C129.08 5.75618 128.962 5.5103 128.725 5.30224C128.489 5.08473 128.158 4.97598 127.732 4.97598H126.068C126.008 4.97598 125.959 5.02483 125.959 5.0851V6.99468C125.959 7.05494 126.008 7.1038 126.068 7.1038H127.732ZM111.939 3.983C112 3.983 112.048 4.03185 112.048 4.09212V11.2503C112.048 11.3106 112 11.3594 111.939 11.3594H110.172C110.111 11.3594 110.062 11.3106 110.062 11.2503V8.20589C110.062 8.14563 110.014 8.09678 109.953 8.09678H106.341C106.281 8.09678 106.232 8.14563 106.232 8.20589V11.2503C106.232 11.3106 106.184 11.3594 106.123 11.3594H104.356C104.295 11.3594 104.246 11.3106 104.246 11.2503V4.09212C104.246 4.03185 104.295 3.983 104.356 3.983H106.123C106.184 3.983 106.232 4.03185 106.232 4.09212V6.99468C106.232 7.05494 106.281 7.1038 106.341 7.1038H109.953C110.014 7.1038 110.062 7.05494 110.062 6.99468V4.09212C110.062 4.03185 110.111 3.983 110.172 3.983H111.939ZM87.4427 10.0827C87.4855 10.0827 87.5238 10.0564 87.5391 10.0165L89.8274 4.05302C89.8436 4.01084 89.8841 3.983 89.9293 3.983H92.6532C92.7134 3.983 92.7623 4.03185 92.7623 4.09212V11.2503C92.7623 11.3106 92.7134 11.3594 92.6532 11.3594H90.8854C90.8252 11.3594 90.7763 11.3106 90.7763 11.2503V6.05296C90.7763 6.00657 90.7387 5.96896 90.6923 5.96896C90.6575 5.96896 90.6263 5.99046 90.6138 6.02301L88.6044 11.2892C88.5882 11.3315 88.5477 11.3594 88.5024 11.3594H86.3971C86.3519 11.3594 86.3114 11.3316 86.2952 11.2894L84.2717 6.02289C84.2593 5.9904 84.2281 5.96896 84.1933 5.96896C84.1468 5.96896 84.1092 6.0066 84.1092 6.05304V11.2503C84.1092 11.3106 84.0603 11.3594 84.0001 11.3594H82.2323C82.1721 11.3594 82.1232 11.3106 82.1232 11.2503V4.09212C82.1232 4.03185 82.1721 3.983 82.2323 3.983H84.9562C85.0014 3.983 85.0419 4.01084 85.0581 4.05302L87.3464 10.0165C87.3617 10.0564 87.4 10.0827 87.4427 10.0827ZM56.0819 11.2812C56.1257 11.3241 56.1961 11.3227 56.238 11.278L57.1523 10.3027C57.1929 10.2593 57.1914 10.1914 57.1488 10.1499L54.6816 7.74942C54.6376 7.70658 54.6376 7.63585 54.6816 7.593L57.1488 5.19253C57.1914 5.15105 57.1929 5.08308 57.1523 5.03969L56.238 4.06443C56.1961 4.01976 56.1257 4.01829 56.0819 4.06117L52.4819 7.59332C52.4383 7.6361 52.4383 7.70633 52.4819 7.7491L56.0819 11.2812ZM59.1318 10.785C59.1755 10.8278 59.2459 10.8262 59.2877 10.7816L60.2019 9.8065C60.2427 9.76301 60.241 9.69485 60.1981 9.65341L58.2287 7.74967C58.1844 7.70678 58.1844 7.63565 58.2287 7.59276L60.1981 5.68901C60.241 5.64758 60.2427 5.57942 60.2019 5.53593L59.2877 4.5608C59.2459 4.51618 59.1755 4.51466 59.1318 4.55743L56.0286 7.59321C55.9848 7.63601 55.9848 7.70642 56.0286 7.74921L59.1318 10.785ZM32.9472 3.2739C32.9981 3.2739 33.0394 3.31516 33.0394 3.36606V11.2505C33.0394 11.3107 33.0883 11.3596 33.1485 11.3596H34.9872C35.0474 11.3596 35.0963 11.3107 35.0963 11.2505V1.53891C35.0963 1.47864 35.0474 1.42979 34.9872 1.42979H32.4599C32.4232 1.42979 32.3889 1.44826 32.3687 1.47893L27.1088 9.47398C27.0918 9.49989 27.0628 9.51549 27.0318 9.51549C26.9809 9.51549 26.9397 9.47423 26.9397 9.42332V1.53891C26.9397 1.47864 26.8908 1.42979 26.8305 1.42979H24.9919C24.9316 1.42979 24.8828 1.47864 24.8828 1.53891V11.2505C24.8828 11.3107 24.9316 11.3596 24.9919 11.3596H27.5192C27.5559 11.3596 27.5902 11.3411 27.6103 11.3105L32.8702 3.31541C32.8873 3.28949 32.9162 3.2739 32.9472 3.2739ZM17.6842 2.4937C17.6239 2.4937 17.5751 2.54255 17.5751 2.60282V11.2505C17.5751 11.3107 17.5262 11.3596 17.4659 11.3596H15.6273C15.567 11.3596 15.5182 11.3107 15.5182 11.2505V1.53891C15.5182 1.47864 15.567 1.42979 15.6273 1.42979H23.6366C23.6969 1.42979 23.7457 1.47864 23.7457 1.53891V2.38458C23.7457 2.44484 23.6969 2.4937 23.6366 2.4937H17.6842Z"
    fill="#004F25" />
</svg>