<svg width="18" height="18" viewBox="0 0 18 18" fill="none" xmlns="http://www.w3.org/2000/svg">
<path fill-rule="evenodd" clip-rule="evenodd" d="M8.9958 2.31616C11.566 2.31616 13.809 3.72284 14.9946 5.81042L13.5216 5.61517C13.111 5.56074 12.734 5.84949 12.6795 6.26011C12.6251 6.67074 12.9139 7.04773 13.3245 7.10216L16.6607 7.54439C17.0714 7.59882 17.4484 7.31007 17.5028 6.89944L17.9192 3.75798C17.9736 3.34735 17.6849 2.97036 17.2742 2.91593C16.8636 2.8615 16.4866 3.15025 16.4322 3.56087L16.2447 4.97575C14.7887 2.48832 12.0882 0.816162 8.9958 0.816162C4.36012 0.816162 0.602163 4.57412 0.602163 9.2098C0.602163 13.8455 4.36012 17.6034 8.9958 17.6034C12.5833 17.6034 15.6434 15.3531 16.8449 12.1895C16.992 11.8023 16.7973 11.3692 16.4101 11.2221C16.0229 11.075 15.5898 11.2697 15.4427 11.6569C14.455 14.2573 11.9401 16.1034 8.9958 16.1034C5.18855 16.1034 2.10216 13.017 2.10216 9.2098C2.10216 5.40255 5.18855 2.31616 8.9958 2.31616Z" fill="#3876C1"/>
</svg>
